# Blender 5.2.0 LTS
# www.blender.org
mtllib torus.mtl
o Torus
v 1.500000 0.000000 0.000000
v 1.433013 0.250000 0.000000
v 1.250000 0.433013 0.000000
v 1.000000 0.500000 0.000000
v 0.750000 0.433013 0.000000
v 0.566987 0.250000 0.000000
v 0.500000 0.000000 0.000000
v 0.566987 -0.250000 0.000000
v 0.750000 -0.433013 0.000000
v 1.000000 -0.500000 0.000000
v 1.250000 -0.433013 0.000000
v 1.433013 -0.250000 0.000000
v 1.448889 0.000000 -0.388228
v 1.384184 0.250000 -0.370891
v 1.207407 0.433013 -0.323524
v 0.965926 0.500000 -0.258819
v 0.724444 0.433013 -0.194114
v 0.547668 0.250000 -0.146747
v 0.482963 0.000000 -0.129409
v 0.547668 -0.250000 -0.146747
v 0.724444 -0.433013 -0.194114
v 0.965926 -0.500000 -0.258819
v 1.207407 -0.433013 -0.323524
v 1.384184 -0.250000 -0.370891
v 1.299038 0.000000 -0.750000
v 1.241025 0.250000 -0.716507
v 1.082532 0.433013 -0.625000
v 0.866025 0.500000 -0.500000
v 0.649519 0.433013 -0.375000
v 0.491025 0.250000 -0.283494
v 0.433013 0.000000 -0.250000
v 0.491025 -0.250000 -0.283494
v 0.649519 -0.433013 -0.375000
v 0.866025 -0.500000 -0.500000
v 1.082532 -0.433013 -0.625000
v 1.241025 -0.250000 -0.716507
v 1.060660 0.000000 -1.060660
v 1.013293 0.250000 -1.013293
v 0.883883 0.433013 -0.883884
v 0.707107 0.500000 -0.707107
v 0.530330 0.433013 -0.530330
v 0.400921 0.250000 -0.400921
v 0.353553 0.000000 -0.353553
v 0.400921 -0.250000 -0.400921
v 0.530330 -0.433013 -0.530330
v 0.707107 -0.500000 -0.707107
v 0.883883 -0.433013 -0.883884
v 1.013293 -0.250000 -1.013293
v 0.750000 0.000000 -1.299038
v 0.716506 0.250000 -1.241025
v 0.625000 0.433013 -1.082532
v 0.500000 0.500000 -0.866025
v 0.375000 0.433013 -0.649519
v 0.283494 0.250000 -0.491025
v 0.250000 0.000000 -0.433013
v 0.283494 -0.250000 -0.491025
v 0.375000 -0.433013 -0.649519
v 0.500000 -0.500000 -0.866025
v 0.625000 -0.433013 -1.082532
v 0.716506 -0.250000 -1.241025
v 0.388229 0.000000 -1.448889
v 0.370891 0.250000 -1.384184
v 0.323524 0.433013 -1.207407
v 0.258819 0.500000 -0.965926
v 0.194114 0.433013 -0.724444
v 0.146747 0.250000 -0.547668
v 0.129410 0.000000 -0.482963
v 0.146747 -0.250000 -0.547668
v 0.194114 -0.433013 -0.724444
v 0.258819 -0.500000 -0.965926
v 0.323524 -0.433013 -1.207407
v 0.370891 -0.250000 -1.384184
v 0.000000 0.000000 -1.500000
v 0.000000 0.250000 -1.433013
v 0.000000 0.433013 -1.250000
v 0.000000 0.500000 -1.000000
v 0.000000 0.433013 -0.750000
v 0.000000 0.250000 -0.566987
v 0.000000 0.000000 -0.500000
v 0.000000 -0.250000 -0.566987
v 0.000000 -0.433013 -0.750000
v 0.000000 -0.500000 -1.000000
v 0.000000 -0.433013 -1.250000
v 0.000000 -0.250000 -1.433013
v -0.388228 0.000000 -1.448889
v -0.370891 0.250000 -1.384184
v -0.323524 0.433013 -1.207407
v -0.258819 0.500000 -0.965926
v -0.194114 0.433013 -0.724444
v -0.146747 0.250000 -0.547668
v -0.129409 0.000000 -0.482963
v -0.146747 -0.250000 -0.547668
v -0.194114 -0.433013 -0.724444
v -0.258819 -0.500000 -0.965926
v -0.323524 -0.433013 -1.207407
v -0.370891 -0.250000 -1.384184
v -0.750000 0.000000 -1.299038
v -0.716506 0.250000 -1.241026
v -0.625000 0.433013 -1.082532
v -0.500000 0.500000 -0.866026
v -0.375000 0.433013 -0.649519
v -0.283494 0.250000 -0.491025
v -0.250000 0.000000 -0.433013
v -0.283494 -0.250000 -0.491025
v -0.375000 -0.433013 -0.649519
v -0.500000 -0.500000 -0.866026
v -0.625000 -0.433013 -1.082532
v -0.716506 -0.250000 -1.241026
v -1.060660 0.000000 -1.060660
v -1.013293 0.250000 -1.013293
v -0.883884 0.433013 -0.883883
v -0.707107 0.500000 -0.707107
v -0.530330 0.433013 -0.530330
v -0.400921 0.250000 -0.400920
v -0.353553 0.000000 -0.353553
v -0.400921 -0.250000 -0.400920
v -0.530330 -0.433013 -0.530330
v -0.707107 -0.500000 -0.707107
v -0.883884 -0.433013 -0.883883
v -1.013293 -0.250000 -1.013293
v -1.299038 0.000000 -0.750000
v -1.241025 0.250000 -0.716507
v -1.082532 0.433013 -0.625000
v -0.866025 0.500000 -0.500000
v -0.649519 0.433013 -0.375000
v -0.491025 0.250000 -0.283494
v -0.433013 0.000000 -0.250000
v -0.491025 -0.250000 -0.283494
v -0.649519 -0.433013 -0.375000
v -0.866025 -0.500000 -0.500000
v -1.082532 -0.433013 -0.625000
v -1.241025 -0.250000 -0.716507
v -1.448889 0.000000 -0.388228
v -1.384184 0.250000 -0.370891
v -1.207407 0.433013 -0.323524
v -0.965926 0.500000 -0.258819
v -0.724444 0.433013 -0.194114
v -0.547668 0.250000 -0.146747
v -0.482963 0.000000 -0.129409
v -0.547668 -0.250000 -0.146747
v -0.724444 -0.433013 -0.194114
v -0.965926 -0.500000 -0.258819
v -1.207407 -0.433013 -0.323524
v -1.384184 -0.250000 -0.370891
v -1.500000 0.000000 -0.000000
v -1.433013 0.250000 -0.000000
v -1.250000 0.433013 -0.000000
v -1.000000 0.500000 -0.000000
v -0.750000 0.433013 -0.000000
v -0.566987 0.250000 -0.000000
v -0.500000 0.000000 -0.000000
v -0.566987 -0.250000 -0.000000
v -0.750000 -0.433013 -0.000000
v -1.000000 -0.500000 -0.000000
v -1.250000 -0.433013 -0.000000
v -1.433013 -0.250000 -0.000000
v -1.448889 0.000000 0.388228
v -1.384184 0.250000 0.370891
v -1.207407 0.433013 0.323524
v -0.965926 0.500000 0.258819
v -0.724444 0.433013 0.194114
v -0.547668 0.250000 0.146747
v -0.482963 0.000000 0.129409
v -0.547668 -0.250000 0.146747
v -0.724444 -0.433013 0.194114
v -0.965926 -0.500000 0.258819
v -1.207407 -0.433013 0.323524
v -1.384184 -0.250000 0.370891
v -1.299038 0.000000 0.750000
v -1.241026 0.250000 0.716506
v -1.082532 0.433013 0.625000
v -0.866026 0.500000 0.500000
v -0.649519 0.433013 0.375000
v -0.491025 0.250000 0.283494
v -0.433013 0.000000 0.250000
v -0.491025 -0.250000 0.283494
v -0.649519 -0.433013 0.375000
v -0.866026 -0.500000 0.500000
v -1.082532 -0.433013 0.625000
v -1.241026 -0.250000 0.716506
v -1.060660 0.000000 1.060660
v -1.013293 0.250000 1.013293
v -0.883884 0.433013 0.883883
v -0.707107 0.500000 0.707107
v -0.530330 0.433013 0.530330
v -0.400921 0.250000 0.400920
v -0.353553 0.000000 0.353553
v -0.400921 -0.250000 0.400920
v -0.530330 -0.433013 0.530330
v -0.707107 -0.500000 0.707107
v -0.883884 -0.433013 0.883883
v -1.013293 -0.250000 1.013293
v -0.750000 0.000000 1.299038
v -0.716506 0.250000 1.241026
v -0.625000 0.433013 1.082532
v -0.500000 0.500000 0.866026
v -0.375000 0.433013 0.649519
v -0.283494 0.250000 0.491025
v -0.250000 0.000000 0.433013
v -0.283494 -0.250000 0.491025
v -0.375000 -0.433013 0.649519
v -0.500000 -0.500000 0.866026
v -0.625000 -0.433013 1.082532
v -0.716506 -0.250000 1.241026
v -0.388229 0.000000 1.448889
v -0.370891 0.250000 1.384184
v -0.323524 0.433013 1.207407
v -0.258819 0.500000 0.965926
v -0.194115 0.433013 0.724444
v -0.146747 0.250000 0.547668
v -0.129410 0.000000 0.482963
v -0.146747 -0.250000 0.547668
v -0.194115 -0.433013 0.724444
v -0.258819 -0.500000 0.965926
v -0.323524 -0.433013 1.207407
v -0.370891 -0.250000 1.384184
v 0.000000 0.000000 1.500000
v 0.000000 0.250000 1.433013
v 0.000000 0.433013 1.250000
v 0.000000 0.500000 1.000000
v 0.000000 0.433013 0.750000
v 0.000000 0.250000 0.566987
v 0.000000 0.000000 0.500000
v 0.000000 -0.250000 0.566987
v 0.000000 -0.433013 0.750000
v 0.000000 -0.500000 1.000000
v 0.000000 -0.433013 1.250000
v 0.000000 -0.250000 1.433013
v 0.388228 0.000000 1.448889
v 0.370890 0.250000 1.384184
v 0.323523 0.433013 1.207407
v 0.258819 0.500000 0.965926
v 0.194114 0.433013 0.724444
v 0.146747 0.250000 0.547668
v 0.129409 0.000000 0.482963
v 0.146747 -0.250000 0.547668
v 0.194114 -0.433013 0.724444
v 0.258819 -0.500000 0.965926
v 0.323523 -0.433013 1.207407
v 0.370890 -0.250000 1.384184
v 0.750000 0.000000 1.299038
v 0.716506 0.250000 1.241025
v 0.625000 0.433013 1.082532
v 0.500000 0.500000 0.866025
v 0.375000 0.433013 0.649519
v 0.283494 0.250000 0.491025
v 0.250000 0.000000 0.433013
v 0.283494 -0.250000 0.491025
v 0.375000 -0.433013 0.649519
v 0.500000 -0.500000 0.866025
v 0.625000 -0.433013 1.082532
v 0.716506 -0.250000 1.241025
v 1.060660 0.000000 1.060661
v 1.013292 0.250000 1.013294
v 0.883883 0.433013 0.883884
v 0.707106 0.500000 0.707107
v 0.530330 0.433013 0.530330
v 0.400920 0.250000 0.400921
v 0.353553 0.000000 0.353554
v 0.400920 -0.250000 0.400921
v 0.530330 -0.433013 0.530330
v 0.707106 -0.500000 0.707107
v 0.883883 -0.433013 0.883884
v 1.013292 -0.250000 1.013294
v 1.299038 0.000000 0.750000
v 1.241025 0.250000 0.716507
v 1.082532 0.433013 0.625000
v 0.866025 0.500000 0.500000
v 0.649519 0.433013 0.375000
v 0.491025 0.250000 0.283494
v 0.433013 0.000000 0.250000
v 0.491025 -0.250000 0.283494
v 0.649519 -0.433013 0.375000
v 0.866025 -0.500000 0.500000
v 1.082532 -0.433013 0.625000
v 1.241025 -0.250000 0.716507
v 1.448889 0.000000 0.388228
v 1.384184 0.250000 0.370891
v 1.207407 0.433013 0.323523
v 0.965926 0.500000 0.258819
v 0.724444 0.433013 0.194114
v 0.547668 0.250000 0.146747
v 0.482963 0.000000 0.129409
v 0.547668 -0.250000 0.146747
v 0.724444 -0.433013 0.194114
v 0.965926 -0.500000 0.258819
v 1.207407 -0.433013 0.323523
v 1.384184 -0.250000 0.370891
vn 0.9582 0.2568 -0.1262
vn 0.7041 0.7041 -0.0927
vn 0.2587 0.9654 -0.0341
vn -0.2587 0.9654 0.0341
vn -0.7041 0.7041 0.0927
vn -0.9582 0.2568 0.1262
vn -0.9582 -0.2568 0.1262
vn -0.7041 -0.7041 0.0927
vn -0.2587 -0.9654 0.0341
vn 0.2587 -0.9654 -0.0341
vn 0.7041 -0.7041 -0.0927
vn 0.9582 -0.2568 -0.1262
vn 0.8929 0.2568 -0.3699
vn 0.6561 0.7041 -0.2718
vn 0.2410 0.9654 -0.0998
vn -0.2410 0.9654 0.0998
vn -0.6561 0.7041 0.2718
vn -0.8929 0.2568 0.3699
vn -0.8929 -0.2568 0.3699
vn -0.6561 -0.7041 0.2718
vn -0.2410 -0.9654 0.0998
vn 0.2410 -0.9654 -0.0998
vn 0.6561 -0.7041 -0.2718
vn 0.8929 -0.2568 -0.3699
vn 0.7668 0.2568 -0.5884
vn 0.5634 0.7041 -0.4323
vn 0.2070 0.9654 -0.1588
vn -0.2070 0.9654 0.1588
vn -0.5634 0.7041 0.4323
vn -0.7668 0.2568 0.5884
vn -0.7668 -0.2568 0.5884
vn -0.5634 -0.7041 0.4323
vn -0.2070 -0.9654 0.1588
vn 0.2070 -0.9654 -0.1588
vn 0.5634 -0.7041 -0.4323
vn 0.7668 -0.2568 -0.5884
vn 0.5884 0.2568 -0.7668
vn 0.4323 0.7041 -0.5634
vn 0.1588 0.9654 -0.2070
vn -0.1588 0.9654 0.2070
vn -0.4323 0.7041 0.5634
vn -0.5884 0.2568 0.7668
vn -0.5884 -0.2568 0.7668
vn -0.4323 -0.7041 0.5634
vn -0.1588 -0.9654 0.2070
vn 0.1588 -0.9654 -0.2070
vn 0.4323 -0.7041 -0.5634
vn 0.5884 -0.2568 -0.7668
vn 0.3699 0.2568 -0.8929
vn 0.2718 0.7041 -0.6561
vn 0.0998 0.9654 -0.2410
vn -0.0998 0.9654 0.2410
vn -0.2718 0.7041 0.6561
vn -0.3699 0.2568 0.8929
vn -0.3699 -0.2568 0.8929
vn -0.2718 -0.7041 0.6561
vn -0.0998 -0.9654 0.2410
vn 0.0998 -0.9654 -0.2410
vn 0.2718 -0.7041 -0.6561
vn 0.3699 -0.2568 -0.8929
vn 0.1262 0.2568 -0.9582
vn 0.0927 0.7041 -0.7041
vn 0.0341 0.9654 -0.2587
vn -0.0341 0.9654 0.2587
vn -0.0927 0.7041 0.7041
vn -0.1262 0.2568 0.9582
vn -0.1262 -0.2568 0.9582
vn -0.0927 -0.7041 0.7041
vn -0.0341 -0.9654 0.2587
vn 0.0341 -0.9654 -0.2587
vn 0.0927 -0.7041 -0.7041
vn 0.1262 -0.2568 -0.9582
vn -0.1262 0.2568 -0.9582
vn -0.0927 0.7041 -0.7041
vn -0.0341 0.9654 -0.2587
vn 0.0341 0.9654 0.2587
vn 0.0927 0.7041 0.7041
vn 0.1262 0.2568 0.9582
vn 0.1262 -0.2568 0.9582
vn 0.0927 -0.7041 0.7041
vn 0.0341 -0.9654 0.2587
vn -0.0341 -0.9654 -0.2587
vn -0.0927 -0.7041 -0.7041
vn -0.1262 -0.2568 -0.9582
vn -0.3699 0.2568 -0.8929
vn -0.2718 0.7041 -0.6561
vn -0.0998 0.9654 -0.2410
vn 0.0998 0.9654 0.2410
vn 0.2718 0.7041 0.6561
vn 0.3699 0.2568 0.8929
vn 0.3699 -0.2568 0.8929
vn 0.2718 -0.7041 0.6561
vn 0.0998 -0.9654 0.2410
vn -0.0998 -0.9654 -0.2410
vn -0.2718 -0.7041 -0.6561
vn -0.3699 -0.2567 -0.8929
vn -0.5884 0.2568 -0.7668
vn -0.4323 0.7041 -0.5634
vn -0.1588 0.9654 -0.2070
vn 0.1588 0.9654 0.2070
vn 0.4323 0.7041 0.5634
vn 0.5884 0.2568 0.7668
vn 0.5884 -0.2568 0.7668
vn 0.4323 -0.7041 0.5634
vn 0.1588 -0.9654 0.2070
vn -0.1588 -0.9654 -0.2070
vn -0.4323 -0.7041 -0.5634
vn -0.5884 -0.2568 -0.7668
vn -0.7668 0.2568 -0.5884
vn -0.5634 0.7041 -0.4323
vn -0.2070 0.9654 -0.1588
vn 0.2070 0.9654 0.1588
vn 0.5634 0.7041 0.4323
vn 0.7668 0.2568 0.5884
vn 0.7668 -0.2568 0.5884
vn 0.5634 -0.7041 0.4323
vn 0.2070 -0.9654 0.1588
vn -0.2070 -0.9654 -0.1588
vn -0.5634 -0.7041 -0.4323
vn -0.7668 -0.2568 -0.5884
vn -0.8929 0.2568 -0.3699
vn -0.6561 0.7041 -0.2718
vn -0.2410 0.9654 -0.0998
vn 0.2410 0.9654 0.0998
vn 0.6561 0.7041 0.2718
vn 0.8929 0.2568 0.3699
vn 0.8929 -0.2568 0.3699
vn 0.6561 -0.7041 0.2718
vn 0.2410 -0.9654 0.0998
vn -0.2410 -0.9654 -0.0998
vn -0.6561 -0.7041 -0.2718
vn -0.8929 -0.2568 -0.3699
vn -0.9582 0.2568 -0.1262
vn -0.7041 0.7041 -0.0927
vn -0.2587 0.9654 -0.0341
vn 0.2587 0.9654 0.0341
vn 0.7041 0.7041 0.0927
vn 0.9582 0.2568 0.1262
vn 0.9582 -0.2568 0.1262
vn 0.7041 -0.7041 0.0927
vn 0.2587 -0.9654 0.0341
vn -0.2587 -0.9654 -0.0341
vn -0.7041 -0.7041 -0.0927
vn -0.9582 -0.2568 -0.1262
vn -0.3699 -0.2568 -0.8929
vn -0.3699 0.2567 -0.8929
vt 0.541667 0.500000
vt 0.500000 0.583333
vt 0.500000 0.500000
vt 0.541667 0.583333
vt 0.500000 0.666667
vt 0.541667 0.666667
vt 0.500000 0.750000
vt 0.541667 0.750000
vt 0.500000 0.833333
vt 0.541667 0.833333
vt 0.500000 0.916667
vt 0.541667 0.916667
vt 0.500000 1.000000
vt 0.541667 0.000000
vt 0.500000 0.083333
vt 0.500000 0.000000
vt 0.541667 0.083333
vt 0.500000 0.166667
vt 0.541667 0.166667
vt 0.500000 0.250000
vt 0.541667 0.333333
vt 0.500000 0.333333
vt 0.541667 0.416667
vt 0.500000 0.416667
vt 0.583333 0.500000
vt 0.583333 0.666667
vt 0.583333 0.750000
vt 0.583333 0.833333
vt 0.583333 0.916667
vt 0.541667 1.000000
vt 0.583333 0.000000
vt 0.583333 0.083333
vt 0.583333 0.250000
vt 0.541667 0.250000
vt 0.583333 0.333333
vt 0.625000 0.583333
vt 0.583333 0.583333
vt 0.625000 0.666667
vt 0.625000 0.833333
vt 0.625000 0.916667
vt 0.583333 1.000000
vt 0.625000 0.000000
vt 0.625000 0.083333
vt 0.583333 0.166667
vt 0.625000 0.166667
vt 0.625000 0.250000
vt 0.625000 0.333333
vt 0.583333 0.416667
vt 0.625000 0.416667
vt 0.666667 0.500000
vt 0.625000 0.500000
vt 0.666667 0.583333
vt 0.666667 0.666667
vt 0.625000 0.750000
vt 0.666667 0.750000
vt 0.666667 0.833333
vt 0.666667 0.916667
vt 0.625000 1.000000
vt 0.666667 0.000000
vt 0.666667 0.166667
vt 0.666667 0.250000
vt 0.666667 0.333333
vt 0.666667 0.416667
vt 0.708333 0.500000
vt 0.708333 0.666667
vt 0.708333 0.833333
vt 0.708333 0.916667
vt 0.666667 1.000000
vt 0.708333 0.000000
vt 0.666667 0.083333
vt 0.708333 0.166667
vt 0.708333 0.333333
vt 0.708333 0.416667
vt 0.750000 0.500000
vt 0.708333 0.583333
vt 0.750000 0.583333
vt 0.750000 0.666667
vt 0.708333 0.750000
vt 0.750000 0.750000
vt 0.750000 0.833333
vt 0.750000 1.000000
vt 0.708333 1.000000
vt 0.750000 0.000000
vt 0.708333 0.083333
vt 0.750000 0.166667
vt 0.750000 0.250000
vt 0.708333 0.250000
vt 0.750000 0.333333
vt 0.750000 0.416667
vt 0.791667 0.500000
vt 0.791667 0.666667
vt 0.791667 0.750000
vt 0.791667 0.833333
vt 0.750000 0.916667
vt 0.791667 0.916667
vt 0.791667 0.000000
vt 0.750000 0.083333
vt 0.791667 0.083333
vt 0.791667 0.250000
vt 0.791667 0.333333
vt 0.791667 0.416667
vt 0.833333 0.500000
vt 0.791667 0.583333
vt 0.833333 0.583333
vt 0.833333 0.666667
vt 0.833333 0.833333
vt 0.833333 0.916667
vt 0.791667 1.000000
vt 0.833333 0.000000
vt 0.833333 0.166667
vt 0.791667 0.166667
vt 0.833333 0.333333
vt 0.833333 0.416667
vt 0.875000 0.500000
vt 0.875000 0.583333
vt 0.875000 0.666667
vt 0.833333 0.750000
vt 0.875000 0.750000
vt 0.875000 0.833333
vt 0.875000 0.916667
vt 0.833333 1.000000
vt 0.875000 0.000000
vt 0.833333 0.083333
vt 0.875000 0.083333
vt 0.875000 0.166667
vt 0.833333 0.250000
vt 0.875000 0.333333
vt 0.875000 0.416667
vt 0.916667 0.583333
vt 0.916667 0.666667
vt 0.916667 0.750000
vt 0.916667 0.833333
vt 0.916667 0.916667
vt 0.875000 1.000000
vt 0.916667 0.000000
vt 0.916667 0.083333
vt 0.916667 0.166667
vt 0.875000 0.250000
vt 0.916667 0.250000
vt 0.916667 0.333333
vt 0.916667 0.416667
vt 0.958333 0.500000
vt 0.916667 0.500000
vt 0.958333 0.666667
vt 0.958333 0.750000
vt 0.958333 0.833333
vt 0.958333 0.916667
vt 0.916667 1.000000
vt 0.958333 0.000000
vt 0.958333 0.083333
vt 0.958333 0.166667
vt 0.958333 0.250000
vt 0.958333 0.333333
vt 0.958333 0.416667
vt 1.000000 0.500000
vt 0.958333 0.583333
vt 1.000000 0.583333
vt 1.000000 0.666667
vt 1.000000 0.750000
vt 1.000000 0.833333
vt 1.000000 0.916667
vt 0.958333 1.000000
vt 1.000000 0.000000
vt 1.000000 0.083333
vt 1.000000 0.250000
vt 1.000000 0.416667
vt 0.041667 0.500000
vt -0.000000 0.583333
vt -0.000000 0.500000
vt 0.041667 0.666667
vt -0.000000 0.666667
vt -0.000000 0.750000
vt 0.041667 0.833333
vt -0.000000 0.833333
vt -0.000000 0.916667
vt 0.041667 0.916667
vt -0.000000 1.000000
vt 0.041667 0.000000
vt -0.000000 0.083333
vt -0.000000 0.000000
vt 0.041667 0.166667
vt -0.000000 0.166667
vt 0.041667 0.250000
vt -0.000000 0.250000
vt -0.000000 0.333333
vt 0.041667 0.333333
vt -0.000000 0.416667
vt 0.041667 0.416667
vt 0.083333 0.500000
vt 0.041667 0.583333
vt 0.083333 0.666667
vt 0.041667 0.750000
vt 0.083333 0.833333
vt 0.083333 0.916667
vt 0.041667 1.000000
vt 0.083333 0.000000
vt 0.041667 0.083333
vt 0.083333 0.166667
vt 0.083333 0.333333
vt 0.083333 0.416667
vt 0.125000 0.500000
vt 0.083333 0.583333
vt 0.125000 0.666667
vt 0.083333 0.750000
vt 0.125000 0.833333
vt 0.125000 0.916667
vt 0.083333 1.000000
vt 0.125000 0.000000
vt 0.083333 0.083333
vt 0.125000 0.166667
vt 0.083333 0.250000
vt 0.125000 0.333333
vt 0.125000 0.416667
vt 0.166667 0.583333
vt 0.125000 0.583333
vt 0.166667 0.666667
vt 0.166667 0.750000
vt 0.125000 0.750000
vt 0.166667 0.833333
vt 0.166667 1.000000
vt 0.125000 1.000000
vt 0.166667 0.000000
vt 0.125000 0.083333
vt 0.166667 0.083333
vt 0.166667 0.166667
vt 0.125000 0.250000
vt 0.166667 0.250000
vt 0.166667 0.333333
vt 0.166667 0.416667
vt 0.166667 0.500000
vt 0.208333 0.583333
vt 0.208333 0.666667
vt 0.208333 0.750000
vt 0.208333 0.833333
vt 0.166667 0.916667
vt 0.208333 0.916667
vt 0.208333 0.000000
vt 0.208333 0.083333
vt 0.208333 0.166667
vt 0.208333 0.250000
vt 0.208333 0.333333
vt 0.208333 0.416667
vt 0.250000 0.500000
vt 0.208333 0.500000
vt 0.250000 0.583333
vt 0.250000 0.666667
vt 0.250000 0.750000
vt 0.250000 0.833333
vt 0.250000 0.916667
vt 0.208333 1.000000
vt 0.250000 0.000000
vt 0.250000 0.083333
vt 0.250000 0.250000
vt 0.250000 0.333333
vt 0.291667 0.500000
vt 0.291667 0.666667
vt 0.291667 0.750000
vt 0.291667 0.916667
vt 0.250000 1.000000
vt 0.291667 0.000000
vt 0.291667 0.083333
vt 0.250000 0.166667
vt 0.291667 0.166667
vt 0.291667 0.250000
vt 0.291667 0.333333
vt 0.250000 0.416667
vt 0.291667 0.416667
vt 0.333333 0.500000
vt 0.291667 0.583333
vt 0.333333 0.583333
vt 0.333333 0.750000
vt 0.291667 0.833333
vt 0.333333 0.916667
vt 0.291667 1.000000
vt 0.333333 0.000000
vt 0.333333 0.083333
vt 0.333333 0.166667
vt 0.333333 0.250000
vt 0.333333 0.333333
vt 0.333333 0.416667
vt 0.375000 0.583333
vt 0.333333 0.666667
vt 0.375000 0.666667
vt 0.375000 0.750000
vt 0.333333 0.833333
vt 0.375000 0.833333
vt 0.375000 0.916667
vt 0.333333 1.000000
vt 0.375000 0.000000
vt 0.375000 0.083333
vt 0.375000 0.166667
vt 0.375000 0.333333
vt 0.375000 0.416667
vt 0.416667 0.500000
vt 0.375000 0.500000
vt 0.416667 0.666667
vt 0.416667 0.750000
vt 0.416667 0.833333
vt 0.416667 0.916667
vt 0.375000 1.000000
vt 0.416667 0.000000
vt 0.416667 0.166667
vt 0.416667 0.250000
vt 0.375000 0.250000
vt 0.416667 0.333333
vt 0.458333 0.500000
vt 0.416667 0.583333
vt 0.458333 0.666667
vt 0.458333 0.750000
vt 0.458333 0.833333
vt 0.458333 0.916667
vt 0.416667 1.000000
vt 0.458333 0.000000
vt 0.416667 0.083333
vt 0.458333 0.083333
vt 0.458333 0.166667
vt 0.458333 0.250000
vt 0.458333 0.416667
vt 0.416667 0.416667
vt 0.458333 0.583333
vt 0.458333 1.000000
vt 0.458333 0.333333
vt 1.000000 1.000000
vt 1.000000 0.166667
vt 1.000000 0.333333
s 0
f 13/1/1 2/2/1 1/3/1
f 14/4/2 3/5/2 2/2/2
f 15/6/3 4/7/3 3/5/3
f 16/8/4 5/9/4 4/7/4
f 17/10/5 6/11/5 5/9/5
f 18/12/6 7/13/6 6/11/6
f 19/14/7 8/15/7 7/16/7
f 20/17/8 9/18/8 8/15/8
f 21/19/9 10/20/9 9/18/9
f 10/20/10 23/21/10 11/22/10
f 11/22/11 24/23/11 12/24/11
f 24/23/12 1/3/12 12/24/12
f 25/25/13 14/4/13 13/1/13
f 14/4/14 27/26/14 15/6/14
f 27/26/15 16/8/15 15/6/15
f 28/27/16 17/10/16 16/8/16
f 29/28/17 18/12/17 17/10/17
f 30/29/18 19/30/18 18/12/18
f 31/31/19 20/17/19 19/14/19
f 32/32/20 21/19/20 20/17/20
f 21/19/21 34/33/21 22/34/21
f 34/33/22 23/21/22 22/34/22
f 35/35/23 24/23/23 23/21/23
f 24/23/24 25/25/24 13/1/24
f 25/25/25 38/36/25 26/37/25
f 38/36/26 27/26/26 26/37/26
f 39/38/27 28/27/27 27/26/27
f 28/27/28 41/39/28 29/28/28
f 29/28/29 42/40/29 30/29/29
f 42/40/30 31/41/30 30/29/30
f 43/42/31 32/32/31 31/31/31
f 44/43/32 33/44/32 32/32/32
f 45/45/33 34/33/33 33/44/33
f 46/46/34 35/35/34 34/33/34
f 47/47/35 36/48/35 35/35/35
f 48/49/36 25/25/36 36/48/36
f 49/50/37 38/36/37 37/51/37
f 50/52/38 39/38/38 38/36/38
f 51/53/39 40/54/39 39/38/39
f 52/55/40 41/39/40 40/54/40
f 53/56/41 42/40/41 41/39/41
f 54/57/42 43/58/42 42/40/42
f 55/59/43 44/43/43 43/42/43
f 44/43/44 57/60/44 45/45/44
f 57/60/45 46/46/45 45/45/45
f 58/61/46 47/47/46 46/46/46
f 59/62/47 48/49/47 47/47/47
f 60/63/48 37/51/48 48/49/48
f 61/64/49 50/52/49 49/50/49
f 50/52/50 63/65/50 51/53/50
f 63/65/51 52/55/51 51/53/51
f 52/55/52 65/66/52 53/56/52
f 65/66/53 54/57/53 53/56/53
f 66/67/54 55/68/54 54/57/54
f 67/69/55 56/70/55 55/59/55
f 56/70/56 69/71/56 57/60/56
f 69/71/57 58/61/57 57/60/57
f 58/61/58 71/72/58 59/62/58
f 71/72/59 60/63/59 59/62/59
f 72/73/60 49/50/60 60/63/60
f 73/74/61 62/75/61 61/64/61
f 74/76/62 63/65/62 62/75/62
f 75/77/63 64/78/63 63/65/63
f 76/79/64 65/66/64 64/78/64
f 77/80/65 66/67/65 65/66/65
f 66/67/66 79/81/66 67/82/66
f 79/83/67 68/84/67 67/69/67
f 68/84/68 81/85/68 69/71/68
f 69/71/69 82/86/69 70/87/69
f 70/87/70 83/88/70 71/72/70
f 83/88/71 72/73/71 71/72/71
f 84/89/72 61/64/72 72/73/72
f 85/90/73 74/76/73 73/74/73
f 74/76/74 87/91/74 75/77/74
f 75/77/75 88/92/75 76/79/75
f 88/92/76 77/80/76 76/79/76
f 89/93/77 78/94/77 77/80/77
f 90/95/78 79/81/78 78/94/78
f 91/96/79 80/97/79 79/83/79
f 92/98/80 81/85/80 80/97/80
f 81/85/81 94/99/81 82/86/81
f 94/99/82 83/88/82 82/86/82
f 95/100/83 84/89/83 83/88/83
f 96/101/84 73/74/84 84/89/84
f 97/102/85 86/103/85 85/90/85
f 98/104/86 87/91/86 86/103/86
f 99/105/87 88/92/87 87/91/87
f 88/92/88 101/106/88 89/93/88
f 101/106/89 90/95/89 89/93/89
f 102/107/90 91/108/90 90/95/90
f 103/109/91 92/98/91 91/96/91
f 92/98/92 105/110/92 93/111/92
f 105/110/93 94/99/93 93/111/93
f 94/99/94 107/112/94 95/100/94
f 95/100/95 108/113/95 96/101/95
f 108/113/96 85/90/96 96/101/96
f 109/114/97 98/104/97 97/102/97
f 110/115/98 99/105/98 98/104/98
f 111/116/99 100/117/99 99/105/99
f 112/118/100 101/106/100 100/117/100
f 113/119/101 102/107/101 101/106/101
f 114/120/102 103/121/102 102/107/102
f 115/122/103 104/123/103 103/109/103
f 116/124/104 105/110/104 104/123/104
f 117/125/105 106/126/105 105/110/105
f 106/126/106 119/127/106 107/112/106
f 107/112/107 120/128/107 108/113/107
f 108/113/108 109/114/108 97/102/108
f 109/114/109 122/129/109 110/115/109
f 122/129/110 111/116/110 110/115/110
f 123/130/111 112/118/111 111/116/111
f 124/131/112 113/119/112 112/118/112
f 125/132/113 114/120/113 113/119/113
f 126/133/114 115/134/114 114/120/114
f 127/135/115 116/124/115 115/122/115
f 128/136/116 117/125/116 116/124/116
f 129/137/117 118/138/117 117/125/117
f 130/139/118 119/127/118 118/138/118
f 131/140/119 120/128/119 119/127/119
f 132/141/120 109/114/120 120/128/120
f 133/142/121 122/129/121 121/143/121
f 122/129/122 135/144/122 123/130/122
f 135/144/123 124/131/123 123/130/123
f 136/145/124 125/132/124 124/131/124
f 137/146/125 126/133/125 125/132/125
f 138/147/126 127/148/126 126/133/126
f 139/149/127 128/136/127 127/135/127
f 140/150/128 129/137/128 128/136/128
f 141/151/129 130/139/129 129/137/129
f 142/152/130 131/140/130 130/139/130
f 143/153/131 132/141/131 131/140/131
f 144/154/132 121/143/132 132/141/132
f 145/155/133 134/156/133 133/142/133
f 146/157/134 135/144/134 134/156/134
f 147/158/135 136/145/135 135/144/135
f 148/159/136 137/146/136 136/145/136
f 149/160/137 138/147/137 137/146/137
f 150/161/138 139/162/138 138/147/138
f 151/163/139 140/150/139 139/149/139
f 152/164/140 141/151/140 140/150/140
f 141/151/141 154/165/141 142/152/141
f 154/165/142 143/153/142 142/152/142
f 143/153/143 156/166/143 144/154/143
f 156/166/144 133/142/144 144/154/144
f 157/167/6 146/168/6 145/169/6
f 146/168/5 159/170/5 147/171/5
f 159/170/4 148/172/4 147/171/4
f 148/172/3 161/173/3 149/174/3
f 161/173/2 150/175/2 149/174/2
f 162/176/1 151/177/1 150/175/1
f 163/178/12 152/179/12 151/180/12
f 152/179/11 165/181/11 153/182/11
f 153/182/10 166/183/10 154/184/10
f 166/183/9 155/185/9 154/184/9
f 167/186/8 156/187/8 155/185/8
f 168/188/7 145/169/7 156/187/7
f 169/189/18 158/190/18 157/167/18
f 158/190/17 171/191/17 159/170/17
f 171/191/16 160/192/16 159/170/16
f 160/192/15 173/193/15 161/173/15
f 173/193/14 162/176/14 161/173/14
f 174/194/13 163/195/13 162/176/13
f 175/196/24 164/197/24 163/178/24
f 164/197/23 177/198/23 165/181/23
f 177/198/22 166/183/22 165/181/22
f 166/183/21 179/199/21 167/186/21
f 179/199/20 168/188/20 167/186/20
f 180/200/19 157/167/19 168/188/19
f 181/201/30 170/202/30 169/189/30
f 170/202/29 183/203/29 171/191/29
f 183/203/28 172/204/28 171/191/28
f 172/204/27 185/205/27 173/193/27
f 185/205/26 174/194/26 173/193/26
f 186/206/25 175/207/25 174/194/25
f 187/208/36 176/209/36 175/196/36
f 176/209/35 189/210/35 177/198/35
f 189/210/34 178/211/34 177/198/34
f 178/211/33 191/212/33 179/199/33
f 191/212/32 180/200/32 179/199/32
f 192/213/31 169/189/31 180/200/31
f 181/201/42 194/214/42 182/215/42
f 182/215/41 195/216/41 183/203/41
f 183/203/40 196/217/40 184/218/40
f 184/218/39 197/219/39 185/205/39
f 197/219/38 186/206/38 185/205/38
f 186/206/37 199/220/37 187/221/37
f 199/222/48 188/223/48 187/208/48
f 200/224/47 189/210/47 188/223/47
f 201/225/46 190/226/46 189/210/46
f 202/227/45 191/212/45 190/226/45
f 203/228/44 192/213/44 191/212/44
f 204/229/43 181/201/43 192/213/43
f 193/230/54 206/231/54 194/214/54
f 206/231/53 195/216/53 194/214/53
f 207/232/52 196/217/52 195/216/52
f 208/233/51 197/219/51 196/217/51
f 209/234/50 198/235/50 197/219/50
f 210/236/49 199/220/49 198/235/49
f 211/237/60 200/224/60 199/222/60
f 212/238/59 201/225/59 200/224/59
f 213/239/58 202/227/58 201/225/58
f 214/240/57 203/228/57 202/227/57
f 215/241/56 204/229/56 203/228/56
f 216/242/55 193/230/55 204/229/55
f 217/243/66 206/231/66 205/244/66
f 218/245/65 207/232/65 206/231/65
f 219/246/64 208/233/64 207/232/64
f 220/247/63 209/234/63 208/233/63
f 221/248/62 210/236/62 209/234/62
f 222/249/61 211/250/61 210/236/61
f 223/251/72 212/238/72 211/237/72
f 224/252/71 213/239/71 212/238/71
f 213/239/70 226/253/70 214/240/70
f 226/253/69 215/241/69 214/240/69
f 227/254/68 216/242/68 215/241/68
f 216/242/67 217/243/67 205/244/67
f 229/255/78 218/245/78 217/243/78
f 218/245/77 231/256/77 219/246/77
f 219/246/76 232/257/76 220/247/76
f 232/257/75 221/248/75 220/247/75
f 221/248/74 234/258/74 222/249/74
f 234/258/73 223/259/73 222/249/73
f 235/260/84 224/252/84 223/251/84
f 236/261/83 225/262/83 224/252/83
f 237/263/82 226/253/82 225/262/82
f 238/264/81 227/254/81 226/253/81
f 239/265/80 228/266/80 227/254/80
f 240/267/79 217/243/79 228/266/79
f 241/268/90 230/269/90 229/255/90
f 242/270/89 231/256/89 230/269/89
f 231/256/88 244/271/88 232/257/88
f 244/271/87 233/272/87 232/257/87
f 233/272/86 246/273/86 234/258/86
f 246/273/85 235/274/85 234/258/85
f 247/275/145 236/261/145 235/260/145
f 248/276/95 237/263/95 236/261/95
f 249/277/94 238/264/94 237/263/94
f 250/278/93 239/265/93 238/264/93
f 251/279/92 240/267/92 239/265/92
f 252/280/91 229/255/91 240/267/91
f 241/268/102 254/281/102 242/270/102
f 254/281/101 243/282/101 242/270/101
f 255/283/100 244/271/100 243/282/100
f 256/284/99 245/285/99 244/271/99
f 257/286/98 246/273/98 245/285/98
f 258/287/97 247/288/97 246/273/97
f 259/289/108 248/276/108 247/275/108
f 260/290/107 249/277/107 248/276/107
f 261/291/106 250/278/106 249/277/106
f 250/278/105 263/292/105 251/279/105
f 263/292/104 252/280/104 251/279/104
f 264/293/103 241/268/103 252/280/103
f 265/294/114 254/281/114 253/295/114
f 254/281/113 267/296/113 255/283/113
f 255/283/112 268/297/112 256/284/112
f 268/297/111 257/286/111 256/284/111
f 269/298/110 258/287/110 257/286/110
f 270/299/109 259/300/109 258/287/109
f 271/301/120 260/290/120 259/289/120
f 260/290/119 273/302/119 261/291/119
f 261/291/118 274/303/118 262/304/118
f 274/303/117 263/292/117 262/304/117
f 275/305/116 264/293/116 263/292/116
f 264/293/115 265/294/115 253/295/115
f 277/306/126 266/307/126 265/294/126
f 266/307/125 279/308/125 267/296/125
f 279/308/124 268/297/124 267/296/124
f 280/309/123 269/298/123 268/297/123
f 281/310/122 270/299/122 269/298/122
f 282/311/121 271/312/121 270/299/121
f 283/313/132 272/314/132 271/301/132
f 284/315/131 273/302/131 272/314/131
f 285/316/130 274/303/130 273/302/130
f 286/317/129 275/305/129 274/303/129
f 275/305/128 288/318/128 276/319/128
f 276/319/127 277/306/127 265/294/127
f 1/3/138 278/320/138 277/306/138
f 2/2/137 279/308/137 278/320/137
f 3/5/136 280/309/136 279/308/136
f 280/309/135 5/9/135 281/310/135
f 281/310/134 6/11/134 282/311/134
f 6/11/133 283/321/133 282/311/133
f 7/16/144 284/315/144 283/313/144
f 8/15/143 285/316/143 284/315/143
f 9/18/142 286/317/142 285/316/142
f 10/20/141 287/322/141 286/317/141
f 11/22/140 288/318/140 287/322/140
f 12/24/139 277/306/139 288/318/139
f 13/1/1 14/4/1 2/2/1
f 14/4/2 15/6/2 3/5/2
f 15/6/3 16/8/3 4/7/3
f 16/8/4 17/10/4 5/9/4
f 17/10/5 18/12/5 6/11/5
f 18/12/6 19/30/6 7/13/6
f 19/14/7 20/17/7 8/15/7
f 20/17/8 21/19/8 9/18/8
f 21/19/9 22/34/9 10/20/9
f 10/20/10 22/34/10 23/21/10
f 11/22/11 23/21/11 24/23/11
f 24/23/12 13/1/12 1/3/12
f 25/25/13 26/37/13 14/4/13
f 14/4/14 26/37/14 27/26/14
f 27/26/15 28/27/15 16/8/15
f 28/27/16 29/28/16 17/10/16
f 29/28/17 30/29/17 18/12/17
f 30/29/18 31/41/18 19/30/18
f 31/31/19 32/32/19 20/17/19
f 32/32/20 33/44/20 21/19/20
f 21/19/21 33/44/21 34/33/21
f 34/33/22 35/35/22 23/21/22
f 35/35/23 36/48/23 24/23/23
f 24/23/24 36/48/24 25/25/24
f 25/25/25 37/51/25 38/36/25
f 38/36/26 39/38/26 27/26/26
f 39/38/27 40/54/27 28/27/27
f 28/27/28 40/54/28 41/39/28
f 29/28/29 41/39/29 42/40/29
f 42/40/30 43/58/30 31/41/30
f 43/42/31 44/43/31 32/32/31
f 44/43/32 45/45/32 33/44/32
f 45/45/33 46/46/33 34/33/33
f 46/46/34 47/47/34 35/35/34
f 47/47/35 48/49/35 36/48/35
f 48/49/36 37/51/36 25/25/36
f 49/50/37 50/52/37 38/36/37
f 50/52/38 51/53/38 39/38/38
f 51/53/39 52/55/39 40/54/39
f 52/55/40 53/56/40 41/39/40
f 53/56/41 54/57/41 42/40/41
f 54/57/42 55/68/42 43/58/42
f 55/59/43 56/70/43 44/43/43
f 44/43/44 56/70/44 57/60/44
f 57/60/45 58/61/45 46/46/45
f 58/61/46 59/62/46 47/47/46
f 59/62/47 60/63/47 48/49/47
f 60/63/48 49/50/48 37/51/48
f 61/64/49 62/75/49 50/52/49
f 50/52/50 62/75/50 63/65/50
f 63/65/51 64/78/51 52/55/51
f 52/55/52 64/78/52 65/66/52
f 65/66/53 66/67/53 54/57/53
f 66/67/54 67/82/54 55/68/54
f 67/69/55 68/84/55 56/70/55
f 56/70/56 68/84/56 69/71/56
f 69/71/57 70/87/57 58/61/57
f 58/61/58 70/87/58 71/72/58
f 71/72/59 72/73/59 60/63/59
f 72/73/60 61/64/60 49/50/60
f 73/74/61 74/76/61 62/75/61
f 74/76/62 75/77/62 63/65/62
f 75/77/63 76/79/63 64/78/63
f 76/79/64 77/80/64 65/66/64
f 77/80/65 78/94/65 66/67/65
f 66/67/66 78/94/66 79/81/66
f 79/83/67 80/97/67 68/84/67
f 68/84/68 80/97/68 81/85/68
f 69/71/69 81/85/69 82/86/69
f 70/87/70 82/86/70 83/88/70
f 83/88/71 84/89/71 72/73/71
f 84/89/72 73/74/72 61/64/72
f 85/90/73 86/103/73 74/76/73
f 74/76/74 86/103/74 87/91/74
f 75/77/75 87/91/75 88/92/75
f 88/92/76 89/93/76 77/80/76
f 89/93/77 90/95/77 78/94/77
f 90/95/78 91/108/78 79/81/78
f 91/96/79 92/98/79 80/97/79
f 92/98/80 93/111/80 81/85/80
f 81/85/81 93/111/81 94/99/81
f 94/99/82 95/100/82 83/88/82
f 95/100/83 96/101/83 84/89/83
f 96/101/84 85/90/84 73/74/84
f 97/102/146 98/104/146 86/103/146
f 98/104/86 99/105/86 87/91/86
f 99/105/87 100/117/87 88/92/87
f 88/92/88 100/117/88 101/106/88
f 101/106/89 102/107/89 90/95/89
f 102/107/90 103/121/90 91/108/90
f 103/109/91 104/123/91 92/98/91
f 92/98/92 104/123/92 105/110/92
f 105/110/93 106/126/93 94/99/93
f 94/99/94 106/126/94 107/112/94
f 95/100/95 107/112/95 108/113/95
f 108/113/145 97/102/145 85/90/145
f 109/114/97 110/115/97 98/104/97
f 110/115/98 111/116/98 99/105/98
f 111/116/99 112/118/99 100/117/99
f 112/118/100 113/119/100 101/106/100
f 113/119/101 114/120/101 102/107/101
f 114/120/102 115/134/102 103/121/102
f 115/122/103 116/124/103 104/123/103
f 116/124/104 117/125/104 105/110/104
f 117/125/105 118/138/105 106/126/105
f 106/126/106 118/138/106 119/127/106
f 107/112/107 119/127/107 120/128/107
f 108/113/108 120/128/108 109/114/108
f 109/114/109 121/143/109 122/129/109
f 122/129/110 123/130/110 111/116/110
f 123/130/111 124/131/111 112/118/111
f 124/131/112 125/132/112 113/119/112
f 125/132/113 126/133/113 114/120/113
f 126/133/114 127/148/114 115/134/114
f 127/135/115 128/136/115 116/124/115
f 128/136/116 129/137/116 117/125/116
f 129/137/117 130/139/117 118/138/117
f 130/139/118 131/140/118 119/127/118
f 131/140/119 132/141/119 120/128/119
f 132/141/120 121/143/120 109/114/120
f 133/142/121 134/156/121 122/129/121
f 122/129/122 134/156/122 135/144/122
f 135/144/123 136/145/123 124/131/123
f 136/145/124 137/146/124 125/132/124
f 137/146/125 138/147/125 126/133/125
f 138/147/126 139/162/126 127/148/126
f 139/149/127 140/150/127 128/136/127
f 140/150/128 141/151/128 129/137/128
f 141/151/129 142/152/129 130/139/129
f 142/152/130 143/153/130 131/140/130
f 143/153/131 144/154/131 132/141/131
f 144/154/132 133/142/132 121/143/132
f 145/155/133 146/157/133 134/156/133
f 146/157/134 147/158/134 135/144/134
f 147/158/135 148/159/135 136/145/135
f 148/159/136 149/160/136 137/146/136
f 149/160/137 150/161/137 138/147/137
f 150/161/138 151/323/138 139/162/138
f 151/163/139 152/164/139 140/150/139
f 152/164/140 153/324/140 141/151/140
f 141/151/141 153/324/141 154/165/141
f 154/165/142 155/325/142 143/153/142
f 143/153/143 155/325/143 156/166/143
f 156/166/144 145/155/144 133/142/144
f 157/167/6 158/190/6 146/168/6
f 146/168/5 158/190/5 159/170/5
f 159/170/4 160/192/4 148/172/4
f 148/172/3 160/192/3 161/173/3
f 161/173/2 162/176/2 150/175/2
f 162/176/1 163/195/1 151/177/1
f 163/178/12 164/197/12 152/179/12
f 152/179/11 164/197/11 165/181/11
f 153/182/10 165/181/10 166/183/10
f 166/183/9 167/186/9 155/185/9
f 167/186/8 168/188/8 156/187/8
f 168/188/7 157/167/7 145/169/7
f 169/189/18 170/202/18 158/190/18
f 158/190/17 170/202/17 171/191/17
f 171/191/16 172/204/16 160/192/16
f 160/192/15 172/204/15 173/193/15
f 173/193/14 174/194/14 162/176/14
f 174/194/13 175/207/13 163/195/13
f 175/196/24 176/209/24 164/197/24
f 164/197/23 176/209/23 177/198/23
f 177/198/22 178/211/22 166/183/22
f 166/183/21 178/211/21 179/199/21
f 179/199/20 180/200/20 168/188/20
f 180/200/19 169/189/19 157/167/19
f 181/201/30 182/215/30 170/202/30
f 170/202/29 182/215/29 183/203/29
f 183/203/28 184/218/28 172/204/28
f 172/204/27 184/218/27 185/205/27
f 185/205/26 186/206/26 174/194/26
f 186/206/25 187/221/25 175/207/25
f 187/208/36 188/223/36 176/209/36
f 176/209/35 188/223/35 189/210/35
f 189/210/34 190/226/34 178/211/34
f 178/211/33 190/226/33 191/212/33
f 191/212/32 192/213/32 180/200/32
f 192/213/31 181/201/31 169/189/31
f 181/201/42 193/230/42 194/214/42
f 182/215/41 194/214/41 195/216/41
f 183/203/40 195/216/40 196/217/40
f 184/218/39 196/217/39 197/219/39
f 197/219/38 198/235/38 186/206/38
f 186/206/37 198/235/37 199/220/37
f 199/222/48 200/224/48 188/223/48
f 200/224/47 201/225/47 189/210/47
f 201/225/46 202/227/46 190/226/46
f 202/227/45 203/228/45 191/212/45
f 203/228/44 204/229/44 192/213/44
f 204/229/43 193/230/43 181/201/43
f 193/230/54 205/244/54 206/231/54
f 206/231/53 207/232/53 195/216/53
f 207/232/52 208/233/52 196/217/52
f 208/233/51 209/234/51 197/219/51
f 209/234/50 210/236/50 198/235/50
f 210/236/49 211/250/49 199/220/49
f 211/237/60 212/238/60 200/224/60
f 212/238/59 213/239/59 201/225/59
f 213/239/58 214/240/58 202/227/58
f 214/240/57 215/241/57 203/228/57
f 215/241/56 216/242/56 204/229/56
f 216/242/55 205/244/55 193/230/55
f 217/243/66 218/245/66 206/231/66
f 218/245/65 219/246/65 207/232/65
f 219/246/64 220/247/64 208/233/64
f 220/247/63 221/248/63 209/234/63
f 221/248/62 222/249/62 210/236/62
f 222/249/61 223/259/61 211/250/61
f 223/251/72 224/252/72 212/238/72
f 224/252/71 225/262/71 213/239/71
f 213/239/70 225/262/70 226/253/70
f 226/253/69 227/254/69 215/241/69
f 227/254/68 228/266/68 216/242/68
f 216/242/67 228/266/67 217/243/67
f 229/255/78 230/269/78 218/245/78
f 218/245/77 230/269/77 231/256/77
f 219/246/76 231/256/76 232/257/76
f 232/257/75 233/272/75 221/248/75
f 221/248/74 233/272/74 234/258/74
f 234/258/73 235/274/73 223/259/73
f 235/260/84 236/261/84 224/252/84
f 236/261/83 237/263/83 225/262/83
f 237/263/82 238/264/82 226/253/82
f 238/264/81 239/265/81 227/254/81
f 239/265/80 240/267/80 228/266/80
f 240/267/79 229/255/79 217/243/79
f 241/268/90 242/270/90 230/269/90
f 242/270/89 243/282/89 231/256/89
f 231/256/88 243/282/88 244/271/88
f 244/271/87 245/285/87 233/272/87
f 233/272/86 245/285/86 246/273/86
f 246/273/85 247/288/85 235/274/85
f 247/275/145 248/276/145 236/261/145
f 248/276/95 249/277/95 237/263/95
f 249/277/94 250/278/94 238/264/94
f 250/278/93 251/279/93 239/265/93
f 251/279/92 252/280/92 240/267/92
f 252/280/91 241/268/91 229/255/91
f 241/268/102 253/295/102 254/281/102
f 254/281/101 255/283/101 243/282/101
f 255/283/100 256/284/100 244/271/100
f 256/284/99 257/286/99 245/285/99
f 257/286/98 258/287/98 246/273/98
f 258/287/97 259/300/97 247/288/97
f 259/289/108 260/290/108 248/276/108
f 260/290/107 261/291/107 249/277/107
f 261/291/106 262/304/106 250/278/106
f 250/278/105 262/304/105 263/292/105
f 263/292/104 264/293/104 252/280/104
f 264/293/103 253/295/103 241/268/103
f 265/294/114 266/307/114 254/281/114
f 254/281/113 266/307/113 267/296/113
f 255/283/112 267/296/112 268/297/112
f 268/297/111 269/298/111 257/286/111
f 269/298/110 270/299/110 258/287/110
f 270/299/109 271/312/109 259/300/109
f 271/301/120 272/314/120 260/290/120
f 260/290/119 272/314/119 273/302/119
f 261/291/118 273/302/118 274/303/118
f 274/303/117 275/305/117 263/292/117
f 275/305/116 276/319/116 264/293/116
f 264/293/115 276/319/115 265/294/115
f 277/306/126 278/320/126 266/307/126
f 266/307/125 278/320/125 279/308/125
f 279/308/124 280/309/124 268/297/124
f 280/309/123 281/310/123 269/298/123
f 281/310/122 282/311/122 270/299/122
f 282/311/121 283/321/121 271/312/121
f 283/313/132 284/315/132 272/314/132
f 284/315/131 285/316/131 273/302/131
f 285/316/130 286/317/130 274/303/130
f 286/317/129 287/322/129 275/305/129
f 275/305/128 287/322/128 288/318/128
f 276/319/127 288/318/127 277/306/127
f 1/3/138 2/2/138 278/320/138
f 2/2/137 3/5/137 279/308/137
f 3/5/136 4/7/136 280/309/136
f 280/309/135 4/7/135 5/9/135
f 281/310/134 5/9/134 6/11/134
f 6/11/133 7/13/133 283/321/133
f 7/16/144 8/15/144 284/315/144
f 8/15/143 9/18/143 285/316/143
f 9/18/142 10/20/142 286/317/142
f 10/20/141 11/22/141 287/322/141
f 11/22/140 12/24/140 288/318/140
f 12/24/139 1/3/139 277/306/139
