# Blender 5.2.0 LTS
# www.blender.org
mtllib uv_sphere.mtl
o Sphere
v 0.000000 1.000000 0.000000
v 0.000000 0.831470 -0.555570
v 0.000000 0.555570 -0.831470
v 0.000000 0.195090 -0.980785
v 0.000000 0.000000 -1.000000
v 0.000000 -0.195090 -0.980785
v 0.000000 -0.555570 -0.831470
v 0.000000 -1.000000 0.000000
v 0.038060 0.980785 -0.191342
v 0.074658 0.923880 -0.375330
v 0.108386 0.831470 -0.544895
v 0.137950 0.707107 -0.693520
v 0.162212 0.555570 -0.815493
v 0.180240 0.382683 -0.906127
v 0.191342 0.195090 -0.961940
v 0.195090 0.000000 -0.980785
v 0.191342 -0.195090 -0.961940
v 0.180240 -0.382683 -0.906127
v 0.162212 -0.555570 -0.815493
v 0.137950 -0.707107 -0.693520
v 0.108386 -0.831470 -0.544895
v 0.074658 -0.923880 -0.375330
v 0.038060 -0.980785 -0.191342
v 0.074658 0.980785 -0.180240
v 0.146447 0.923880 -0.353553
v 0.212608 0.831470 -0.513280
v 0.270598 0.707107 -0.653281
v 0.318190 0.555570 -0.768178
v 0.353553 0.382683 -0.853553
v 0.375330 0.195090 -0.906127
v 0.382683 0.000000 -0.923879
v 0.375330 -0.195090 -0.906127
v 0.353553 -0.382683 -0.853553
v 0.318190 -0.555570 -0.768178
v 0.270598 -0.707107 -0.653281
v 0.212608 -0.831470 -0.513280
v 0.146447 -0.923880 -0.353553
v 0.074658 -0.980785 -0.180240
v 0.108386 0.980785 -0.162212
v 0.212608 0.923880 -0.318190
v 0.308658 0.831470 -0.461940
v 0.392847 0.707107 -0.587938
v 0.461940 0.555570 -0.691342
v 0.513280 0.382683 -0.768178
v 0.544895 0.195090 -0.815493
v 0.555570 0.000000 -0.831469
v 0.544895 -0.195090 -0.815493
v 0.513280 -0.382683 -0.768178
v 0.461940 -0.555570 -0.691342
v 0.392847 -0.707107 -0.587938
v 0.308658 -0.831470 -0.461940
v 0.212608 -0.923880 -0.318190
v 0.108386 -0.980785 -0.162212
v 0.137950 0.980785 -0.137950
v 0.270598 0.923880 -0.270598
v 0.392847 0.831470 -0.392847
v 0.500000 0.707107 -0.500000
v 0.587938 0.555570 -0.587938
v 0.653281 0.382683 -0.653281
v 0.693520 0.195090 -0.693520
v 0.707107 0.000000 -0.707107
v 0.693520 -0.195090 -0.693520
v 0.653281 -0.382683 -0.653281
v 0.587938 -0.555570 -0.587938
v 0.500000 -0.707107 -0.500000
v 0.392847 -0.831470 -0.392847
v 0.270598 -0.923880 -0.270598
v 0.137950 -0.980785 -0.137950
v 0.162212 0.980785 -0.108386
v 0.318190 0.923880 -0.212608
v 0.461940 0.831470 -0.308658
v 0.587938 0.707107 -0.392847
v 0.691342 0.555570 -0.461940
v 0.768178 0.382683 -0.513280
v 0.815493 0.195090 -0.544895
v 0.831470 0.000000 -0.555570
v 0.815493 -0.195090 -0.544895
v 0.768178 -0.382683 -0.513280
v 0.691342 -0.555570 -0.461940
v 0.587938 -0.707107 -0.392847
v 0.461940 -0.831470 -0.308658
v 0.318190 -0.923880 -0.212608
v 0.162212 -0.980785 -0.108386
v 0.180240 0.980785 -0.074658
v 0.353553 0.923880 -0.146447
v 0.513280 0.831470 -0.212607
v 0.653281 0.707107 -0.270598
v 0.768178 0.555570 -0.318190
v 0.853553 0.382683 -0.353553
v 0.906127 0.195090 -0.375330
v 0.923879 0.000000 -0.382683
v 0.906127 -0.195090 -0.375330
v 0.853553 -0.382683 -0.353553
v 0.768178 -0.555570 -0.318190
v 0.653281 -0.707107 -0.270598
v 0.513280 -0.831470 -0.212607
v 0.353553 -0.923880 -0.146447
v 0.180240 -0.980785 -0.074658
v 0.191342 0.980785 -0.038060
v 0.375330 0.923880 -0.074658
v 0.544895 0.831470 -0.108386
v 0.693520 0.707107 -0.137950
v 0.815493 0.555570 -0.162212
v 0.906127 0.382683 -0.180240
v 0.961940 0.195090 -0.191342
v 0.980785 0.000000 -0.195090
v 0.961940 -0.195090 -0.191342
v 0.906127 -0.382683 -0.180240
v 0.815493 -0.555570 -0.162212
v 0.693520 -0.707107 -0.137950
v 0.544895 -0.831470 -0.108386
v 0.375330 -0.923880 -0.074658
v 0.191342 -0.980785 -0.038060
v 0.195090 0.980785 0.000000
v 0.382683 0.923880 0.000000
v 0.555570 0.831470 0.000000
v 0.707107 0.707107 -0.000000
v 0.831469 0.555570 0.000000
v 0.923879 0.382683 -0.000000
v 0.980785 0.195090 0.000000
v 1.000000 0.000000 0.000000
v 0.980785 -0.195090 0.000000
v 0.923879 -0.382683 -0.000000
v 0.831469 -0.555570 0.000000
v 0.707107 -0.707107 -0.000000
v 0.555570 -0.831470 0.000000
v 0.382683 -0.923880 0.000000
v 0.195090 -0.980785 0.000000
v 0.191342 0.980785 0.038060
v 0.375330 0.923880 0.074658
v 0.544895 0.831470 0.108386
v 0.693520 0.707107 0.137950
v 0.815493 0.555570 0.162212
v 0.906127 0.382683 0.180240
v 0.961940 0.195090 0.191342
v 0.980785 0.000000 0.195090
v 0.961940 -0.195090 0.191342
v 0.906127 -0.382683 0.180240
v 0.815493 -0.555570 0.162212
v 0.693520 -0.707107 0.137950
v 0.544895 -0.831470 0.108386
v 0.375330 -0.923880 0.074658
v 0.191342 -0.980785 0.038060
v 0.180240 0.980785 0.074658
v 0.353553 0.923880 0.146447
v 0.513280 0.831470 0.212608
v 0.653281 0.707107 0.270598
v 0.768178 0.555570 0.318190
v 0.853553 0.382683 0.353553
v 0.906127 0.195090 0.375330
v 0.923879 0.000000 0.382683
v 0.906127 -0.195090 0.375330
v 0.853553 -0.382683 0.353553
v 0.768178 -0.555570 0.318190
v 0.653281 -0.707107 0.270598
v 0.513280 -0.831470 0.212608
v 0.353553 -0.923880 0.146447
v 0.180240 -0.980785 0.074658
v 0.162212 0.980785 0.108386
v 0.318190 0.923880 0.212608
v 0.461940 0.831470 0.308658
v 0.587938 0.707107 0.392847
v 0.691341 0.555570 0.461940
v 0.768178 0.382683 0.513280
v 0.815493 0.195090 0.544895
v 0.831469 0.000000 0.555570
v 0.815493 -0.195090 0.544895
v 0.768178 -0.382683 0.513280
v 0.691341 -0.555570 0.461940
v 0.587938 -0.707107 0.392847
v 0.461940 -0.831470 0.308658
v 0.318190 -0.923880 0.212608
v 0.162212 -0.980785 0.108386
v 0.137950 0.980785 0.137950
v 0.270598 0.923880 0.270598
v 0.392847 0.831470 0.392847
v 0.500000 0.707107 0.500000
v 0.587938 0.555570 0.587938
v 0.653281 0.382683 0.653281
v 0.693520 0.195090 0.693520
v 0.707106 0.000000 0.707107
v 0.693520 -0.195090 0.693520
v 0.653281 -0.382683 0.653281
v 0.587938 -0.555570 0.587938
v 0.500000 -0.707107 0.500000
v 0.392847 -0.831470 0.392847
v 0.270598 -0.923880 0.270598
v 0.137950 -0.980785 0.137950
v 0.108386 0.980785 0.162212
v 0.212607 0.923880 0.318190
v 0.308658 0.831470 0.461940
v 0.392847 0.707107 0.587938
v 0.461940 0.555570 0.691342
v 0.513280 0.382683 0.768178
v 0.544895 0.195090 0.815493
v 0.555570 0.000000 0.831469
v 0.544895 -0.195090 0.815493
v 0.513280 -0.382683 0.768178
v 0.461940 -0.555570 0.691342
v 0.392847 -0.707107 0.587938
v 0.308658 -0.831470 0.461940
v 0.212607 -0.923880 0.318190
v 0.108386 -0.980785 0.162212
v 0.074658 0.980785 0.180240
v 0.146447 0.923880 0.353553
v 0.212607 0.831470 0.513280
v 0.270598 0.707107 0.653281
v 0.318189 0.555570 0.768178
v 0.353553 0.382683 0.853553
v 0.375330 0.195090 0.906127
v 0.382683 0.000000 0.923879
v 0.375330 -0.195090 0.906127
v 0.353553 -0.382683 0.853553
v 0.318189 -0.555570 0.768178
v 0.270598 -0.707107 0.653281
v 0.212607 -0.831470 0.513280
v 0.146447 -0.923880 0.353553
v 0.074658 -0.980785 0.180240
v 0.038060 0.980785 0.191342
v 0.074658 0.923880 0.375330
v 0.108386 0.831470 0.544895
v 0.137950 0.707107 0.693520
v 0.162212 0.555570 0.815493
v 0.180240 0.382683 0.906127
v 0.191342 0.195090 0.961939
v 0.195090 0.000000 0.980785
v 0.191342 -0.195090 0.961939
v 0.180240 -0.382683 0.906127
v 0.162212 -0.555570 0.815493
v 0.137950 -0.707107 0.693520
v 0.108386 -0.831470 0.544895
v 0.074658 -0.923880 0.375330
v 0.038060 -0.980785 0.191342
v -0.000000 0.980785 0.195090
v -0.000000 0.923880 0.382683
v -0.000000 0.831470 0.555570
v -0.000000 0.707107 0.707107
v -0.000000 0.555570 0.831469
v 0.000000 0.382683 0.923879
v -0.000000 0.195090 0.980785
v -0.000000 0.000000 0.999999
v -0.000000 -0.195090 0.980785
v 0.000000 -0.382683 0.923879
v -0.000000 -0.555570 0.831469
v -0.000000 -0.707107 0.707107
v -0.000000 -0.831470 0.555570
v -0.000000 -0.923880 0.382683
v -0.000000 -0.980785 0.195090
v -0.038060 0.980785 0.191342
v -0.074658 0.923880 0.375330
v -0.108386 0.831470 0.544895
v -0.137950 0.707107 0.693520
v -0.162212 0.555570 0.815493
v -0.180240 0.382683 0.906127
v -0.191342 0.195090 0.961939
v -0.195091 0.000000 0.980785
v -0.191342 -0.195090 0.961939
v -0.180240 -0.382683 0.906127
v -0.162212 -0.555570 0.815493
v -0.137950 -0.707107 0.693520
v -0.108386 -0.831470 0.544895
v -0.074658 -0.923880 0.375330
v -0.038060 -0.980785 0.191342
v -0.074658 0.980785 0.180240
v -0.146447 0.923880 0.353553
v -0.212608 0.831470 0.513280
v -0.270598 0.707107 0.653281
v -0.318190 0.555570 0.768177
v -0.353553 0.382683 0.853553
v -0.375330 0.195090 0.906127
v -0.382683 0.000000 0.923879
v -0.375330 -0.195090 0.906127
v -0.353553 -0.382683 0.853553
v -0.318190 -0.555570 0.768177
v -0.270598 -0.707107 0.653281
v -0.212608 -0.831470 0.513280
v -0.146447 -0.923880 0.353553
v -0.074658 -0.980785 0.180240
v -0.108386 0.980785 0.162212
v -0.212608 0.923880 0.318190
v -0.308658 0.831470 0.461939
v -0.392847 0.707107 0.587938
v -0.461940 0.555570 0.691341
v -0.513280 0.382683 0.768178
v -0.544895 0.195090 0.815493
v -0.555570 0.000000 0.831469
v -0.544895 -0.195090 0.815493
v -0.513280 -0.382683 0.768178
v -0.461940 -0.555570 0.691341
v -0.392847 -0.707107 0.587938
v -0.308658 -0.831470 0.461939
v -0.212608 -0.923880 0.318190
v -0.108386 -0.980785 0.162212
v -0.137950 0.980785 0.137950
v -0.270598 0.923880 0.270598
v -0.392847 0.831470 0.392847
v -0.500000 0.707107 0.500000
v -0.587938 0.555570 0.587937
v -0.653281 0.382683 0.653281
v -0.693520 0.195090 0.693520
v -0.707106 0.000000 0.707106
v -0.693520 -0.195090 0.693520
v -0.653281 -0.382683 0.653281
v -0.587938 -0.555570 0.587937
v -0.500000 -0.707107 0.500000
v -0.392847 -0.831470 0.392847
v -0.270598 -0.923880 0.270598
v -0.137950 -0.980785 0.137950
v -0.162212 0.980785 0.108386
v -0.318190 0.923880 0.212607
v -0.461940 0.831470 0.308658
v -0.587938 0.707107 0.392847
v -0.691341 0.555570 0.461939
v -0.768177 0.382683 0.513280
v -0.815493 0.195090 0.544895
v -0.831469 0.000000 0.555569
v -0.815493 -0.195090 0.544895
v -0.768177 -0.382683 0.513280
v -0.691341 -0.555570 0.461939
v -0.587938 -0.707107 0.392847
v -0.461940 -0.831470 0.308658
v -0.318190 -0.923880 0.212607
v -0.162212 -0.980785 0.108386
v -0.180240 0.980785 0.074658
v -0.353553 0.923880 0.146447
v -0.513280 0.831470 0.212607
v -0.653281 0.707107 0.270598
v -0.768177 0.555570 0.318189
v -0.853553 0.382683 0.353553
v -0.906127 0.195090 0.375330
v -0.923879 0.000000 0.382683
v -0.906127 -0.195090 0.375330
v -0.853553 -0.382683 0.353553
v -0.768177 -0.555570 0.318189
v -0.653281 -0.707107 0.270598
v -0.513280 -0.831470 0.212607
v -0.353553 -0.923880 0.146447
v -0.180240 -0.980785 0.074658
v -0.191342 0.980785 0.038060
v -0.375330 0.923880 0.074658
v -0.544895 0.831470 0.108386
v -0.693520 0.707107 0.137950
v -0.815493 0.555570 0.162211
v -0.906127 0.382683 0.180240
v -0.961939 0.195090 0.191341
v -0.980784 0.000000 0.195090
v -0.961939 -0.195090 0.191341
v -0.906127 -0.382683 0.180240
v -0.815493 -0.555570 0.162211
v -0.693520 -0.707107 0.137950
v -0.544895 -0.831470 0.108386
v -0.375330 -0.923880 0.074658
v -0.191342 -0.980785 0.038060
v -0.195090 0.980785 -0.000000
v -0.382683 0.923880 -0.000000
v -0.555570 0.831470 -0.000000
v -0.707107 0.707107 -0.000000
v -0.831469 0.555570 -0.000000
v -0.923879 0.382683 -0.000000
v -0.980785 0.195090 -0.000000
v -0.999999 0.000000 -0.000000
v -0.980785 -0.195090 -0.000000
v -0.923879 -0.382683 -0.000000
v -0.831469 -0.555570 -0.000000
v -0.707107 -0.707107 -0.000000
v -0.555570 -0.831470 -0.000000
v -0.382683 -0.923880 -0.000000
v -0.195090 -0.980785 -0.000000
v -0.191342 0.980785 -0.038060
v -0.375330 0.923880 -0.074658
v -0.544895 0.831470 -0.108386
v -0.693520 0.707107 -0.137950
v -0.815493 0.555570 -0.162212
v -0.906127 0.382683 -0.180240
v -0.961939 0.195090 -0.191342
v -0.980784 0.000000 -0.195091
v -0.961939 -0.195090 -0.191342
v -0.906127 -0.382683 -0.180240
v -0.815493 -0.555570 -0.162212
v -0.693520 -0.707107 -0.137950
v -0.544895 -0.831470 -0.108386
v -0.375330 -0.923880 -0.074658
v -0.191342 -0.980785 -0.038060
v -0.180240 0.980785 -0.074658
v -0.353553 0.923880 -0.146447
v -0.513279 0.831470 -0.212607
v -0.653281 0.707107 -0.270598
v -0.768177 0.555570 -0.318190
v -0.853553 0.382683 -0.353553
v -0.906127 0.195090 -0.375330
v -0.923878 0.000000 -0.382683
v -0.906127 -0.195090 -0.375330
v -0.853553 -0.382683 -0.353553
v -0.768177 -0.555570 -0.318190
v -0.653281 -0.707107 -0.270598
v -0.513279 -0.831470 -0.212607
v -0.353553 -0.923880 -0.146447
v -0.180240 -0.980785 -0.074658
v -0.162212 0.980785 -0.108386
v -0.318189 0.923880 -0.212607
v -0.461939 0.831470 -0.308658
v -0.587938 0.707107 -0.392847
v -0.691341 0.555570 -0.461940
v -0.768177 0.382683 -0.513280
v -0.815493 0.195090 -0.544895
v -0.831468 0.000000 -0.555570
v -0.815493 -0.195090 -0.544895
v -0.768177 -0.382683 -0.513280
v -0.691341 -0.555570 -0.461940
v -0.587938 -0.707107 -0.392847
v -0.461939 -0.831470 -0.308658
v -0.318189 -0.923880 -0.212607
v -0.162212 -0.980785 -0.108386
v -0.137950 0.980785 -0.137950
v -0.270598 0.923880 -0.270598
v -0.392847 0.831470 -0.392847
v -0.500000 0.707107 -0.500000
v -0.587937 0.555570 -0.587938
v -0.653281 0.382683 -0.653281
v -0.693519 0.195090 -0.693520
v -0.707106 0.000000 -0.707106
v -0.693519 -0.195090 -0.693520
v -0.653281 -0.382683 -0.653281
v -0.587937 -0.555570 -0.587938
v -0.500000 -0.707107 -0.500000
v -0.392847 -0.831470 -0.392847
v -0.270598 -0.923880 -0.270598
v -0.137950 -0.980785 -0.137950
v -0.108386 0.980785 -0.162212
v -0.212607 0.923880 -0.318190
v -0.308658 0.831470 -0.461939
v -0.392847 0.707107 -0.587938
v -0.461939 0.555570 -0.691341
v -0.513280 0.382683 -0.768177
v -0.544895 0.195090 -0.815493
v -0.555569 0.000000 -0.831469
v -0.544895 -0.195090 -0.815493
v -0.513280 -0.382683 -0.768177
v -0.461939 -0.555570 -0.691341
v -0.392847 -0.707107 -0.587938
v -0.308658 -0.831470 -0.461939
v -0.212607 -0.923880 -0.318190
v -0.108386 -0.980785 -0.162212
v -0.074658 0.980785 -0.180240
v -0.146446 0.923880 -0.353553
v -0.212607 0.831470 -0.513279
v -0.270598 0.707107 -0.653281
v -0.318189 0.555570 -0.768177
v -0.353553 0.382683 -0.853553
v -0.375330 0.195090 -0.906127
v -0.382683 0.000000 -0.923879
v -0.375330 -0.195090 -0.906127
v -0.353553 -0.382683 -0.853553
v -0.318189 -0.555570 -0.768177
v -0.270598 -0.707107 -0.653281
v -0.212607 -0.831470 -0.513279
v -0.146446 -0.923880 -0.353553
v -0.074658 -0.980785 -0.180240
v -0.038060 0.980785 -0.191342
v -0.074658 0.923880 -0.375330
v -0.108386 0.831470 -0.544895
v -0.137950 0.707107 -0.693520
v -0.162211 0.555570 -0.815493
v -0.180240 0.382683 -0.906127
v -0.191341 0.195090 -0.961939
v -0.195090 0.000000 -0.980784
v -0.191341 -0.195090 -0.961939
v -0.180240 -0.382683 -0.906127
v -0.162211 -0.555570 -0.815493
v -0.137950 -0.707107 -0.693520
v -0.108386 -0.831470 -0.544895
v -0.074658 -0.923880 -0.375330
v -0.038060 -0.980785 -0.191342
v 0.000000 0.980785 -0.195090
v 0.000000 0.923880 -0.382683
v 0.000000 0.707107 -0.707107
v 0.000000 0.382683 -0.923879
v 0.000000 -0.382683 -0.923879
v 0.000000 -0.707107 -0.707107
v 0.000000 -0.831470 -0.555570
v 0.000000 -0.923880 -0.382683
v 0.000000 -0.980785 -0.195090
vn 0.0624 0.7715 -0.6332
vn 0.0759 -0.6326 -0.7708
vn 0.0759 0.6326 -0.7708
vn 0.0624 -0.7715 -0.6332
vn 0.0865 0.4696 -0.8786
vn 0.0464 -0.8810 -0.4709
vn 0.0938 0.2890 -0.9527
vn 0.0286 -0.9565 -0.2902
vn 0.0975 0.0975 -0.9904
vn 0.0097 0.9951 -0.0980
vn 0.0097 -0.9951 -0.0980
vn 0.0975 -0.0976 -0.9904
vn 0.0286 0.9565 -0.2902
vn 0.0938 -0.2890 -0.9527
vn 0.0464 0.8810 -0.4709
vn 0.0865 -0.4696 -0.8786
vn 0.2779 -0.2890 -0.9161
vn 0.1374 0.8810 -0.4528
vn 0.2563 -0.4696 -0.8448
vn 0.1847 0.7715 -0.6088
vn 0.2248 -0.6326 -0.7412
vn 0.2248 0.6326 -0.7412
vn 0.1847 -0.7715 -0.6088
vn 0.2563 0.4696 -0.8448
vn 0.1374 -0.8810 -0.4528
vn 0.2779 0.2890 -0.9161
vn 0.0846 -0.9565 -0.2790
vn 0.2889 0.0976 -0.9524
vn 0.0286 0.9951 -0.0942
vn 0.0286 -0.9951 -0.0942
vn 0.2889 -0.0976 -0.9524
vn 0.0846 0.9565 -0.2790
vn 0.2230 -0.8810 -0.4173
vn 0.4513 0.2890 -0.8443
vn 0.1374 -0.9565 -0.2571
vn 0.4691 0.0975 -0.8777
vn 0.0464 0.9951 -0.0869
vn 0.0464 -0.9951 -0.0869
vn 0.4691 -0.0975 -0.8777
vn 0.1374 0.9565 -0.2571
vn 0.4513 -0.2890 -0.8443
vn 0.2231 0.8810 -0.4173
vn 0.4162 -0.4696 -0.7786
vn 0.2999 0.7715 -0.5611
vn 0.3651 -0.6326 -0.6831
vn 0.3651 0.6326 -0.6831
vn 0.2999 -0.7715 -0.5611
vn 0.4162 0.4696 -0.7786
vn 0.5601 -0.4696 -0.6825
vn 0.4036 0.7715 -0.4918
vn 0.4913 -0.6326 -0.5987
vn 0.4913 0.6326 -0.5987
vn 0.4036 -0.7715 -0.4918
vn 0.5601 0.4696 -0.6825
vn 0.3002 -0.8810 -0.3658
vn 0.6073 0.2890 -0.7400
vn 0.1850 -0.9565 -0.2254
vn 0.6314 0.0975 -0.7693
vn 0.0625 0.9951 -0.0761
vn 0.0625 -0.9951 -0.0761
vn 0.6314 -0.0975 -0.7693
vn 0.1850 0.9565 -0.2254
vn 0.6073 -0.2890 -0.7400
vn 0.3002 0.8810 -0.3658
vn 0.2254 -0.9566 -0.1850
vn 0.7693 0.0975 -0.6314
vn 0.0761 0.9951 -0.0625
vn 0.0761 -0.9951 -0.0625
vn 0.7693 -0.0975 -0.6314
vn 0.2254 0.9565 -0.1850
vn 0.7400 -0.2890 -0.6073
vn 0.3658 0.8810 -0.3002
vn 0.6825 -0.4696 -0.5601
vn 0.4918 0.7715 -0.4036
vn 0.5987 -0.6326 -0.4913
vn 0.5987 0.6326 -0.4913
vn 0.4918 -0.7715 -0.4036
vn 0.6825 0.4696 -0.5601
vn 0.3658 -0.8810 -0.3002
vn 0.7400 0.2890 -0.6073
vn 0.5611 0.7715 -0.2999
vn 0.6831 -0.6326 -0.3651
vn 0.6831 0.6326 -0.3651
vn 0.5611 -0.7715 -0.2999
vn 0.7786 0.4696 -0.4162
vn 0.4173 -0.8810 -0.2230
vn 0.8443 0.2890 -0.4513
vn 0.2571 -0.9565 -0.1374
vn 0.8777 0.0975 -0.4691
vn 0.0869 0.9951 -0.0464
vn 0.0869 -0.9951 -0.0464
vn 0.8777 -0.0975 -0.4691
vn 0.2571 0.9565 -0.1374
vn 0.8443 -0.2890 -0.4513
vn 0.4173 0.8810 -0.2230
vn 0.7786 -0.4696 -0.4162
vn 0.9524 0.0975 -0.2889
vn 0.0942 0.9951 -0.0286
vn 0.0942 -0.9951 -0.0286
vn 0.9524 -0.0975 -0.2889
vn 0.2790 0.9565 -0.0846
vn 0.9161 -0.2890 -0.2779
vn 0.4528 0.8810 -0.1374
vn 0.8448 -0.4696 -0.2563
vn 0.6088 0.7715 -0.1847
vn 0.7412 -0.6326 -0.2248
vn 0.7412 0.6326 -0.2248
vn 0.6088 -0.7715 -0.1847
vn 0.8448 0.4696 -0.2563
vn 0.4528 -0.8810 -0.1374
vn 0.9161 0.2890 -0.2779
vn 0.2790 -0.9565 -0.0846
vn 0.7708 -0.6326 -0.0759
vn 0.7708 0.6326 -0.0759
vn 0.6332 -0.7715 -0.0624
vn 0.8786 0.4696 -0.0865
vn 0.4709 -0.8810 -0.0464
vn 0.9527 0.2890 -0.0938
vn 0.2902 -0.9565 -0.0286
vn 0.9904 0.0975 -0.0975
vn 0.0980 0.9951 -0.0097
vn 0.0980 -0.9951 -0.0097
vn 0.9904 -0.0975 -0.0975
vn 0.2902 0.9565 -0.0286
vn 0.9527 -0.2890 -0.0938
vn 0.4709 0.8810 -0.0464
vn 0.8786 -0.4696 -0.0865
vn 0.6332 0.7715 -0.0624
vn 0.0980 0.9951 0.0097
vn 0.0980 -0.9951 0.0097
vn 0.9904 -0.0975 0.0976
vn 0.2902 0.9565 0.0286
vn 0.9527 -0.2890 0.0938
vn 0.4709 0.8810 0.0464
vn 0.8786 -0.4696 0.0865
vn 0.6332 0.7715 0.0624
vn 0.7708 -0.6326 0.0759
vn 0.7708 0.6326 0.0759
vn 0.6332 -0.7715 0.0624
vn 0.8786 0.4696 0.0865
vn 0.4709 -0.8810 0.0464
vn 0.9527 0.2890 0.0938
vn 0.2902 -0.9565 0.0286
vn 0.9904 0.0975 0.0976
vn 0.7412 0.6326 0.2248
vn 0.6088 -0.7715 0.1847
vn 0.8448 0.4696 0.2563
vn 0.4528 -0.8810 0.1374
vn 0.9161 0.2890 0.2779
vn 0.2790 -0.9565 0.0846
vn 0.9524 0.0975 0.2889
vn 0.0942 0.9951 0.0286
vn 0.0942 -0.9951 0.0286
vn 0.9524 -0.0975 0.2889
vn 0.2790 0.9565 0.0846
vn 0.9161 -0.2890 0.2779
vn 0.4528 0.8810 0.1374
vn 0.8448 -0.4696 0.2563
vn 0.6088 0.7715 0.1847
vn 0.7412 -0.6326 0.2248
vn 0.8777 -0.0975 0.4691
vn 0.2571 0.9565 0.1374
vn 0.8443 -0.2890 0.4513
vn 0.4173 0.8810 0.2231
vn 0.7786 -0.4696 0.4162
vn 0.5611 0.7715 0.2999
vn 0.6831 -0.6326 0.3651
vn 0.6831 0.6326 0.3651
vn 0.5611 -0.7715 0.2999
vn 0.7786 0.4696 0.4162
vn 0.4173 -0.8810 0.2230
vn 0.8443 0.2890 0.4513
vn 0.2571 -0.9565 0.1374
vn 0.8777 0.0975 0.4691
vn 0.0869 0.9951 0.0464
vn 0.0869 -0.9951 0.0464
vn 0.4918 -0.7715 0.4036
vn 0.6825 0.4696 0.5601
vn 0.3658 -0.8810 0.3002
vn 0.7400 0.2890 0.6073
vn 0.2254 -0.9565 0.1850
vn 0.7693 0.0975 0.6314
vn 0.0761 0.9951 0.0625
vn 0.0761 -0.9951 0.0625
vn 0.7693 -0.0975 0.6314
vn 0.2254 0.9565 0.1850
vn 0.7400 -0.2890 0.6073
vn 0.3658 0.8810 0.3002
vn 0.6825 -0.4696 0.5601
vn 0.4918 0.7715 0.4036
vn 0.5987 -0.6326 0.4913
vn 0.5987 0.6326 0.4913
vn 0.6073 -0.2890 0.7400
vn 0.3002 0.8810 0.3658
vn 0.5601 -0.4696 0.6825
vn 0.4036 0.7715 0.4918
vn 0.4913 -0.6326 0.5987
vn 0.4913 0.6326 0.5987
vn 0.4036 -0.7715 0.4918
vn 0.5601 0.4696 0.6825
vn 0.3002 -0.8810 0.3658
vn 0.6073 0.2890 0.7400
vn 0.1850 -0.9565 0.2254
vn 0.6314 0.0975 0.7693
vn 0.0625 0.9951 0.0761
vn 0.0625 -0.9951 0.0761
vn 0.6314 -0.0975 0.7693
vn 0.1850 0.9565 0.2254
vn 0.2230 -0.8810 0.4173
vn 0.4513 0.2890 0.8443
vn 0.1374 -0.9565 0.2571
vn 0.4691 0.0975 0.8777
vn 0.0464 0.9951 0.0869
vn 0.0464 -0.9951 0.0869
vn 0.4691 -0.0975 0.8777
vn 0.1374 0.9565 0.2571
vn 0.4513 -0.2890 0.8443
vn 0.2230 0.8810 0.4173
vn 0.4162 -0.4696 0.7786
vn 0.2999 0.7715 0.5611
vn 0.3651 -0.6326 0.6831
vn 0.3651 0.6326 0.6831
vn 0.2999 -0.7715 0.5611
vn 0.4162 0.4696 0.7786
vn 0.1374 0.8810 0.4528
vn 0.2563 -0.4696 0.8448
vn 0.1847 0.7715 0.6088
vn 0.2248 -0.6326 0.7412
vn 0.2248 0.6326 0.7412
vn 0.1847 -0.7715 0.6088
vn 0.2563 0.4696 0.8448
vn 0.1374 -0.8810 0.4528
vn 0.2779 0.2890 0.9161
vn 0.0846 -0.9565 0.2790
vn 0.2889 0.0975 0.9524
vn 0.0286 0.9951 0.0942
vn 0.0286 -0.9951 0.0942
vn 0.2889 -0.0975 0.9524
vn 0.0846 0.9565 0.2790
vn 0.2779 -0.2890 0.9161
vn 0.0938 0.2890 0.9527
vn 0.0286 -0.9565 0.2902
vn 0.0975 0.0975 0.9904
vn 0.0097 0.9951 0.0980
vn 0.0097 -0.9951 0.0980
vn 0.0975 -0.0975 0.9904
vn 0.0286 0.9565 0.2902
vn 0.0938 -0.2890 0.9527
vn 0.0464 0.8810 0.4709
vn 0.0865 -0.4696 0.8786
vn 0.0624 0.7715 0.6332
vn 0.0759 -0.6326 0.7708
vn 0.0759 0.6326 0.7708
vn 0.0624 -0.7715 0.6332
vn 0.0865 0.4696 0.8786
vn 0.0464 -0.8810 0.4709
vn -0.0865 -0.4696 0.8786
vn -0.0624 0.7715 0.6332
vn -0.0759 -0.6326 0.7708
vn -0.0759 0.6326 0.7708
vn -0.0624 -0.7715 0.6332
vn -0.0865 0.4696 0.8786
vn -0.0464 -0.8810 0.4709
vn -0.0938 0.2890 0.9527
vn -0.0286 -0.9565 0.2902
vn -0.0976 0.0975 0.9904
vn -0.0097 0.9951 0.0980
vn -0.0097 -0.9951 0.0980
vn -0.0975 -0.0975 0.9904
vn -0.0286 0.9565 0.2902
vn -0.0938 -0.2890 0.9527
vn -0.0464 0.8810 0.4709
vn -0.0846 -0.9565 0.2790
vn -0.2889 0.0975 0.9524
vn -0.0286 0.9951 0.0942
vn -0.0286 -0.9951 0.0942
vn -0.2889 -0.0975 0.9524
vn -0.0846 0.9565 0.2790
vn -0.2779 -0.2890 0.9161
vn -0.1374 0.8810 0.4528
vn -0.2563 -0.4696 0.8448
vn -0.1847 0.7715 0.6088
vn -0.2248 -0.6326 0.7412
vn -0.2248 0.6326 0.7412
vn -0.1847 -0.7715 0.6088
vn -0.2563 0.4696 0.8448
vn -0.1374 -0.8810 0.4528
vn -0.2779 0.2890 0.9161
vn -0.2999 0.7715 0.5611
vn -0.3651 -0.6326 0.6831
vn -0.3651 0.6326 0.6831
vn -0.2999 -0.7715 0.5611
vn -0.4162 0.4696 0.7786
vn -0.2230 -0.8810 0.4173
vn -0.4513 0.2890 0.8443
vn -0.1374 -0.9565 0.2571
vn -0.4691 0.0975 0.8777
vn -0.0464 0.9951 0.0869
vn -0.0464 -0.9951 0.0869
vn -0.4691 -0.0975 0.8777
vn -0.1374 0.9565 0.2571
vn -0.4513 -0.2890 0.8443
vn -0.2230 0.8810 0.4173
vn -0.4162 -0.4696 0.7786
vn -0.6314 0.0975 0.7693
vn -0.0625 0.9951 0.0761
vn -0.0625 -0.9951 0.0761
vn -0.6314 -0.0975 0.7693
vn -0.1850 0.9565 0.2254
vn -0.6073 -0.2890 0.7400
vn -0.3002 0.8810 0.3658
vn -0.5601 -0.4696 0.6825
vn -0.4036 0.7715 0.4918
vn -0.4913 -0.6326 0.5987
vn -0.4913 0.6326 0.5987
vn -0.4036 -0.7715 0.4918
vn -0.5601 0.4696 0.6825
vn -0.3002 -0.8810 0.3658
vn -0.6073 0.2890 0.7400
vn -0.1850 -0.9565 0.2254
vn -0.5987 -0.6326 0.4913
vn -0.5987 0.6326 0.4913
vn -0.4918 -0.7715 0.4036
vn -0.6825 0.4696 0.5601
vn -0.3658 -0.8810 0.3002
vn -0.7400 0.2890 0.6073
vn -0.2254 -0.9566 0.1850
vn -0.7693 0.0975 0.6314
vn -0.0761 0.9951 0.0625
vn -0.0761 -0.9951 0.0625
vn -0.7693 -0.0975 0.6314
vn -0.2254 0.9565 0.1850
vn -0.7400 -0.2890 0.6073
vn -0.3658 0.8810 0.3002
vn -0.6825 -0.4696 0.5601
vn -0.4918 0.7715 0.4036
vn -0.0869 -0.9951 0.0464
vn -0.8777 -0.0975 0.4691
vn -0.2571 0.9565 0.1374
vn -0.8443 -0.2890 0.4513
vn -0.4173 0.8810 0.2230
vn -0.7786 -0.4696 0.4162
vn -0.5611 0.7715 0.2999
vn -0.6831 -0.6326 0.3651
vn -0.6831 0.6326 0.3651
vn -0.5611 -0.7715 0.2999
vn -0.7786 0.4696 0.4162
vn -0.4173 -0.8810 0.2231
vn -0.8443 0.2890 0.4513
vn -0.2571 -0.9565 0.1374
vn -0.8777 0.0975 0.4691
vn -0.0869 0.9951 0.0464
vn -0.6088 -0.7715 0.1847
vn -0.8448 0.4696 0.2563
vn -0.4528 -0.8810 0.1374
vn -0.9161 0.2890 0.2779
vn -0.2790 -0.9565 0.0846
vn -0.9524 0.0975 0.2889
vn -0.0942 0.9951 0.0286
vn -0.0942 -0.9951 0.0286
vn -0.9524 -0.0975 0.2889
vn -0.2790 0.9565 0.0846
vn -0.9161 -0.2890 0.2779
vn -0.4528 0.8810 0.1374
vn -0.8448 -0.4696 0.2563
vn -0.6088 0.7715 0.1847
vn -0.7412 -0.6326 0.2248
vn -0.7412 0.6326 0.2248
vn -0.2902 0.9565 0.0286
vn -0.9527 -0.2890 0.0938
vn -0.4709 0.8810 0.0464
vn -0.8786 -0.4696 0.0865
vn -0.6332 0.7715 0.0624
vn -0.7708 -0.6326 0.0759
vn -0.7708 0.6326 0.0759
vn -0.6332 -0.7715 0.0624
vn -0.8786 0.4696 0.0865
vn -0.4709 -0.8810 0.0464
vn -0.9527 0.2890 0.0938
vn -0.2902 -0.9565 0.0286
vn -0.9904 0.0975 0.0975
vn -0.0980 0.9951 0.0097
vn -0.0980 -0.9951 0.0097
vn -0.9904 -0.0975 0.0976
vn -0.8786 0.4696 -0.0865
vn -0.4709 -0.8810 -0.0464
vn -0.9527 0.2890 -0.0938
vn -0.2902 -0.9565 -0.0286
vn -0.9904 0.0975 -0.0975
vn -0.0980 0.9951 -0.0097
vn -0.0980 -0.9951 -0.0097
vn -0.9904 -0.0975 -0.0976
vn -0.2902 0.9565 -0.0286
vn -0.9527 -0.2890 -0.0938
vn -0.4709 0.8810 -0.0464
vn -0.8786 -0.4696 -0.0865
vn -0.6332 0.7715 -0.0624
vn -0.7708 -0.6326 -0.0759
vn -0.7708 0.6326 -0.0759
vn -0.6332 -0.7715 -0.0624
vn -0.9161 -0.2890 -0.2779
vn -0.4528 0.8810 -0.1374
vn -0.8448 -0.4696 -0.2563
vn -0.6088 0.7715 -0.1847
vn -0.7412 -0.6326 -0.2248
vn -0.7412 0.6326 -0.2248
vn -0.6088 -0.7715 -0.1847
vn -0.8448 0.4696 -0.2563
vn -0.4528 -0.8810 -0.1374
vn -0.9161 0.2890 -0.2779
vn -0.2790 -0.9565 -0.0846
vn -0.9524 0.0975 -0.2889
vn -0.0942 0.9951 -0.0286
vn -0.0942 -0.9951 -0.0286
vn -0.9524 -0.0975 -0.2889
vn -0.2790 0.9565 -0.0846
vn -0.4173 -0.8810 -0.2231
vn -0.8443 0.2890 -0.4513
vn -0.2571 -0.9565 -0.1374
vn -0.8777 0.0975 -0.4691
vn -0.0869 0.9951 -0.0464
vn -0.0869 -0.9951 -0.0464
vn -0.8777 -0.0975 -0.4691
vn -0.2571 0.9565 -0.1374
vn -0.8443 -0.2890 -0.4513
vn -0.4173 0.8810 -0.2231
vn -0.7786 -0.4696 -0.4162
vn -0.5611 0.7715 -0.2999
vn -0.6831 -0.6326 -0.3651
vn -0.6831 0.6326 -0.3651
vn -0.5611 -0.7715 -0.2999
vn -0.7786 0.4696 -0.4162
vn -0.3658 0.8810 -0.3002
vn -0.6825 -0.4696 -0.5601
vn -0.4918 0.7715 -0.4036
vn -0.5987 -0.6326 -0.4913
vn -0.5987 0.6326 -0.4913
vn -0.4918 -0.7715 -0.4036
vn -0.6825 0.4696 -0.5601
vn -0.3658 -0.8810 -0.3002
vn -0.7400 0.2890 -0.6073
vn -0.2254 -0.9565 -0.1850
vn -0.7693 0.0975 -0.6314
vn -0.0761 0.9951 -0.0625
vn -0.0761 -0.9951 -0.0625
vn -0.7693 -0.0975 -0.6314
vn -0.2254 0.9565 -0.1850
vn -0.7400 -0.2890 -0.6073
vn -0.6073 0.2890 -0.7400
vn -0.1850 -0.9565 -0.2254
vn -0.6314 0.0975 -0.7693
vn -0.0625 0.9951 -0.0761
vn -0.0625 -0.9951 -0.0761
vn -0.6314 -0.0975 -0.7693
vn -0.1850 0.9565 -0.2254
vn -0.6073 -0.2890 -0.7400
vn -0.3002 0.8810 -0.3658
vn -0.5601 -0.4696 -0.6825
vn -0.4036 0.7715 -0.4918
vn -0.4913 -0.6326 -0.5987
vn -0.4913 0.6326 -0.5987
vn -0.4036 -0.7715 -0.4918
vn -0.5601 0.4696 -0.6825
vn -0.3002 -0.8810 -0.3658
vn -0.4162 -0.4696 -0.7786
vn -0.2999 0.7715 -0.5611
vn -0.3651 -0.6326 -0.6831
vn -0.3651 0.6326 -0.6831
vn -0.2999 -0.7715 -0.5611
vn -0.4162 0.4696 -0.7786
vn -0.2230 -0.8810 -0.4173
vn -0.4513 0.2890 -0.8443
vn -0.1374 -0.9565 -0.2571
vn -0.4691 0.0975 -0.8777
vn -0.0464 0.9951 -0.0869
vn -0.0464 -0.9951 -0.0869
vn -0.4691 -0.0975 -0.8777
vn -0.1374 0.9565 -0.2571
vn -0.4513 -0.2890 -0.8443
vn -0.2230 0.8810 -0.4173
vn -0.0846 -0.9565 -0.2790
vn -0.2889 0.0975 -0.9524
vn -0.0286 0.9951 -0.0942
vn -0.0286 -0.9951 -0.0942
vn -0.2889 -0.0975 -0.9524
vn -0.0846 0.9565 -0.2790
vn -0.2779 -0.2890 -0.9161
vn -0.1374 0.8810 -0.4528
vn -0.2563 -0.4696 -0.8448
vn -0.1847 0.7715 -0.6088
vn -0.2248 -0.6326 -0.7412
vn -0.2248 0.6326 -0.7412
vn -0.1847 -0.7715 -0.6088
vn -0.2563 0.4696 -0.8448
vn -0.1374 -0.8810 -0.4528
vn -0.2779 0.2890 -0.9161
vn -0.0759 -0.6326 -0.7708
vn -0.0759 0.6326 -0.7708
vn -0.0624 -0.7715 -0.6332
vn -0.0865 0.4696 -0.8786
vn -0.0464 -0.8810 -0.4709
vn -0.0938 0.2890 -0.9527
vn -0.0286 -0.9565 -0.2902
vn -0.0976 0.0975 -0.9904
vn -0.0097 0.9951 -0.0980
vn -0.0097 -0.9951 -0.0980
vn -0.0976 -0.0975 -0.9904
vn -0.0286 0.9565 -0.2902
vn -0.0938 -0.2890 -0.9527
vn -0.0464 0.8810 -0.4709
vn -0.0865 -0.4696 -0.8786
vn -0.0624 0.7715 -0.6332
vn 0.0975 0.0976 -0.9904
vn 0.0975 -0.0975 -0.9904
vn 0.2231 -0.8810 -0.4173
vn 0.2230 0.8810 -0.4173
vn 0.2254 -0.9565 -0.1850
vn 0.4173 0.8810 0.2230
vn 0.4173 -0.8810 0.2231
vn 0.2231 -0.8810 0.4173
vn -0.0975 0.0975 0.9904
vn -0.0976 -0.0975 0.9904
vn -0.2231 -0.8810 0.4173
vn -0.2231 0.8810 0.4173
vn -0.2254 -0.9565 0.1850
vn -0.4173 -0.8810 0.2230
vn -0.9904 0.0975 0.0976
vn -0.9904 -0.0975 0.0975
vn -0.9904 0.0975 -0.0976
vn -0.9904 -0.0975 -0.0975
vt 0.750000 0.750000
vt 0.718750 0.812500
vt 0.718750 0.750000
vt 0.750000 0.312500
vt 0.718750 0.250000
vt 0.750000 0.250000
vt 0.750000 0.687500
vt 0.718750 0.687500
vt 0.718750 0.187500
vt 0.750000 0.187500
vt 0.750000 0.625000
vt 0.718750 0.625000
vt 0.718750 0.125000
vt 0.750000 0.125000
vt 0.750000 0.562500
vt 0.718750 0.562500
vt 0.718750 0.062500
vt 0.750000 0.062500
vt 0.718750 0.500000
vt 0.750000 0.500000
vt 0.750000 0.937500
vt 0.734375 1.000000
vt 0.718750 0.937500
vt 0.734375 0.000000
vt 0.718750 0.437500
vt 0.750000 0.437500
vt 0.750000 0.875000
vt 0.718750 0.875000
vt 0.718750 0.375000
vt 0.750000 0.375000
vt 0.750000 0.812500
vt 0.718750 0.312500
vt 0.687500 0.375000
vt 0.687500 0.812500
vt 0.687500 0.312500
vt 0.687500 0.750000
vt 0.687500 0.250000
vt 0.687500 0.687500
vt 0.687500 0.187500
vt 0.687500 0.625000
vt 0.687500 0.125000
vt 0.687500 0.562500
vt 0.687500 0.062500
vt 0.687500 0.500000
vt 0.703125 1.000000
vt 0.687500 0.937500
vt 0.703125 0.000000
vt 0.687500 0.437500
vt 0.687500 0.875000
vt 0.656250 0.125000
vt 0.656250 0.562500
vt 0.656250 0.062500
vt 0.656250 0.500000
vt 0.671875 1.000000
vt 0.656250 0.937500
vt 0.671875 0.000000
vt 0.656250 0.437500
vt 0.656250 0.875000
vt 0.656250 0.375000
vt 0.656250 0.812500
vt 0.656250 0.312500
vt 0.656250 0.750000
vt 0.656250 0.250000
vt 0.656250 0.687500
vt 0.656250 0.187500
vt 0.656250 0.625000
vt 0.625000 0.375000
vt 0.625000 0.312500
vt 0.625000 0.750000
vt 0.625000 0.250000
vt 0.625000 0.687500
vt 0.625000 0.187500
vt 0.625000 0.625000
vt 0.625000 0.125000
vt 0.625000 0.562500
vt 0.625000 0.062500
vt 0.625000 0.500000
vt 0.640625 1.000000
vt 0.625000 0.937500
vt 0.640625 0.000000
vt 0.625000 0.437500
vt 0.625000 0.875000
vt 0.625000 0.812500
vt 0.593750 0.062500
vt 0.593750 0.562500
vt 0.593750 0.500000
vt 0.609375 1.000000
vt 0.593750 0.937500
vt 0.609375 0.000000
vt 0.593750 0.437500
vt 0.593750 0.875000
vt 0.593750 0.375000
vt 0.593750 0.812500
vt 0.593750 0.312500
vt 0.593750 0.750000
vt 0.593750 0.250000
vt 0.593750 0.687500
vt 0.593750 0.187500
vt 0.593750 0.625000
vt 0.593750 0.125000
vt 0.562500 0.750000
vt 0.562500 0.250000
vt 0.562500 0.687500
vt 0.562500 0.187500
vt 0.562500 0.625000
vt 0.562500 0.125000
vt 0.562500 0.562500
vt 0.562500 0.062500
vt 0.562500 0.500000
vt 0.578125 1.000000
vt 0.562500 0.937500
vt 0.578125 0.000000
vt 0.562500 0.437500
vt 0.562500 0.875000
vt 0.562500 0.375000
vt 0.562500 0.812500
vt 0.562500 0.312500
vt 0.531250 0.562500
vt 0.531250 0.500000
vt 0.546875 1.000000
vt 0.531250 0.937500
vt 0.546875 0.000000
vt 0.531250 0.062500
vt 0.531250 0.437500
vt 0.531250 0.875000
vt 0.531250 0.375000
vt 0.531250 0.812500
vt 0.531250 0.312500
vt 0.531250 0.750000
vt 0.531250 0.250000
vt 0.531250 0.687500
vt 0.531250 0.187500
vt 0.531250 0.625000
vt 0.531250 0.125000
vt 0.500000 0.250000
vt 0.500000 0.750000
vt 0.500000 0.687500
vt 0.500000 0.187500
vt 0.500000 0.625000
vt 0.500000 0.125000
vt 0.500000 0.562500
vt 0.500000 0.062500
vt 0.500000 0.500000
vt 0.515625 1.000000
vt 0.500000 0.937500
vt 0.515625 0.000000
vt 0.500000 0.437500
vt 0.500000 0.875000
vt 0.500000 0.375000
vt 0.500000 0.812500
vt 0.500000 0.312500
vt 0.484375 1.000000
vt 0.468750 0.937500
vt 0.484375 0.000000
vt 0.468750 0.062500
vt 0.468750 0.437500
vt 0.468750 0.875000
vt 0.468750 0.375000
vt 0.468750 0.812500
vt 0.468750 0.312500
vt 0.468750 0.750000
vt 0.468750 0.250000
vt 0.468750 0.687500
vt 0.468750 0.187500
vt 0.468750 0.625000
vt 0.468750 0.125000
vt 0.468750 0.562500
vt 0.468750 0.500000
vt 0.437500 0.750000
vt 0.437500 0.687500
vt 0.437500 0.250000
vt 0.437500 0.187500
vt 0.437500 0.625000
vt 0.437500 0.125000
vt 0.437500 0.562500
vt 0.437500 0.062500
vt 0.437500 0.500000
vt 0.453125 1.000000
vt 0.437500 0.937500
vt 0.453125 0.000000
vt 0.437500 0.437500
vt 0.437500 0.875000
vt 0.437500 0.375000
vt 0.437500 0.812500
vt 0.437500 0.312500
vt 0.406250 0.437500
vt 0.406250 0.875000
vt 0.406250 0.375000
vt 0.406250 0.812500
vt 0.406250 0.312500
vt 0.406250 0.750000
vt 0.406250 0.250000
vt 0.406250 0.687500
vt 0.406250 0.187500
vt 0.406250 0.625000
vt 0.406250 0.125000
vt 0.406250 0.562500
vt 0.406250 0.062500
vt 0.406250 0.500000
vt 0.421875 1.000000
vt 0.406250 0.937500
vt 0.421875 0.000000
vt 0.375000 0.187500
vt 0.375000 0.625000
vt 0.375000 0.125000
vt 0.375000 0.562500
vt 0.375000 0.062500
vt 0.375000 0.500000
vt 0.390625 1.000000
vt 0.375000 0.937500
vt 0.390625 0.000000
vt 0.375000 0.437500
vt 0.375000 0.875000
vt 0.375000 0.375000
vt 0.375000 0.812500
vt 0.375000 0.312500
vt 0.375000 0.750000
vt 0.375000 0.250000
vt 0.375000 0.687500
vt 0.343750 0.375000
vt 0.343750 0.875000
vt 0.343750 0.812500
vt 0.343750 0.312500
vt 0.343750 0.750000
vt 0.343750 0.250000
vt 0.343750 0.687500
vt 0.343750 0.187500
vt 0.343750 0.625000
vt 0.343750 0.125000
vt 0.343750 0.562500
vt 0.343750 0.062500
vt 0.343750 0.500000
vt 0.359375 1.000000
vt 0.343750 0.937500
vt 0.359375 0.000000
vt 0.343750 0.437500
vt 0.312500 0.125000
vt 0.312500 0.625000
vt 0.312500 0.562500
vt 0.312500 0.062500
vt 0.312500 0.500000
vt 0.328125 1.000000
vt 0.312500 0.937500
vt 0.328125 0.000000
vt 0.312500 0.437500
vt 0.312500 0.875000
vt 0.312500 0.375000
vt 0.312500 0.812500
vt 0.312500 0.312500
vt 0.312500 0.750000
vt 0.312500 0.250000
vt 0.312500 0.687500
vt 0.312500 0.187500
vt 0.281250 0.812500
vt 0.281250 0.375000
vt 0.281250 0.312500
vt 0.281250 0.750000
vt 0.281250 0.250000
vt 0.281250 0.687500
vt 0.281250 0.187500
vt 0.281250 0.625000
vt 0.281250 0.125000
vt 0.281250 0.562500
vt 0.281250 0.062500
vt 0.281250 0.500000
vt 0.296875 1.000000
vt 0.281250 0.937500
vt 0.296875 0.000000
vt 0.281250 0.437500
vt 0.281250 0.875000
vt 0.250000 0.625000
vt 0.250000 0.562500
vt 0.250000 0.125000
vt 0.250000 0.062500
vt 0.250000 0.500000
vt 0.265625 1.000000
vt 0.250000 0.937500
vt 0.265625 0.000000
vt 0.250000 0.437500
vt 0.250000 0.875000
vt 0.250000 0.375000
vt 0.250000 0.812500
vt 0.250000 0.312500
vt 0.250000 0.750000
vt 0.250000 0.250000
vt 0.250000 0.687500
vt 0.250000 0.187500
vt 0.218750 0.375000
vt 0.218750 0.312500
vt 0.218750 0.750000
vt 0.218750 0.250000
vt 0.218750 0.687500
vt 0.218750 0.187500
vt 0.218750 0.625000
vt 0.218750 0.125000
vt 0.218750 0.562500
vt 0.218750 0.062500
vt 0.218750 0.500000
vt 0.234375 1.000000
vt 0.218750 0.937500
vt 0.234375 0.000000
vt 0.218750 0.437500
vt 0.218750 0.875000
vt 0.218750 0.812500
vt 0.187500 0.062500
vt 0.187500 0.562500
vt 0.187500 0.500000
vt 0.203125 1.000000
vt 0.187500 0.937500
vt 0.203125 0.000000
vt 0.187500 0.437500
vt 0.187500 0.875000
vt 0.187500 0.375000
vt 0.187500 0.812500
vt 0.187500 0.312500
vt 0.187500 0.750000
vt 0.187500 0.250000
vt 0.187500 0.687500
vt 0.187500 0.187500
vt 0.187500 0.625000
vt 0.187500 0.125000
vt 0.156250 0.750000
vt 0.156250 0.250000
vt 0.156250 0.687500
vt 0.156250 0.187500
vt 0.156250 0.625000
vt 0.156250 0.125000
vt 0.156250 0.562500
vt 0.156250 0.062500
vt 0.156250 0.500000
vt 0.171875 1.000000
vt 0.156250 0.937500
vt 0.171875 0.000000
vt 0.156250 0.437500
vt 0.156250 0.875000
vt 0.156250 0.375000
vt 0.156250 0.812500
vt 0.156250 0.312500
vt 0.125000 0.562500
vt 0.125000 0.500000
vt 0.140625 1.000000
vt 0.125000 0.937500
vt 0.140625 0.000000
vt 0.125000 0.062500
vt 0.125000 0.437500
vt 0.125000 0.875000
vt 0.125000 0.375000
vt 0.125000 0.812500
vt 0.125000 0.312500
vt 0.125000 0.750000
vt 0.125000 0.250000
vt 0.125000 0.687500
vt 0.125000 0.187500
vt 0.125000 0.625000
vt 0.125000 0.125000
vt 0.093750 0.250000
vt 0.093750 0.750000
vt 0.093750 0.687500
vt 0.093750 0.187500
vt 0.093750 0.625000
vt 0.093750 0.125000
vt 0.093750 0.562500
vt 0.093750 0.062500
vt 0.093750 0.500000
vt 0.109375 1.000000
vt 0.093750 0.937500
vt 0.109375 0.000000
vt 0.093750 0.437500
vt 0.093750 0.875000
vt 0.093750 0.375000
vt 0.093750 0.812500
vt 0.093750 0.312500
vt 0.078125 0.000000
vt 0.062500 0.062500
vt 0.062500 0.437500
vt 0.062500 0.875000
vt 0.062500 0.375000
vt 0.062500 0.812500
vt 0.062500 0.312500
vt 0.062500 0.750000
vt 0.062500 0.250000
vt 0.062500 0.687500
vt 0.062500 0.187500
vt 0.062500 0.625000
vt 0.062500 0.125000
vt 0.062500 0.562500
vt 0.062500 0.500000
vt 0.078125 1.000000
vt 0.062500 0.937500
vt 0.031250 0.250000
vt 0.031250 0.187500
vt 0.031250 0.625000
vt 0.031250 0.125000
vt 0.031250 0.562500
vt 0.031250 0.062500
vt 0.031250 0.500000
vt 0.046875 1.000000
vt 0.031250 0.937500
vt 0.046875 0.000000
vt 0.031250 0.437500
vt 0.031250 0.875000
vt 0.031250 0.375000
vt 0.031250 0.812500
vt 0.031250 0.312500
vt 0.031250 0.750000
vt 0.031250 0.687500
vt 0.000000 0.875000
vt 0.000000 0.375000
vt 0.000000 0.812500
vt 0.000000 0.312500
vt 0.000000 0.750000
vt 0.000000 0.250000
vt 0.000000 0.687500
vt 0.000000 0.187500
vt 0.000000 0.625000
vt 0.000000 0.125000
vt 0.000000 0.562500
vt 0.000000 0.062500
vt 0.000000 0.500000
vt 0.015625 1.000000
vt 0.000000 0.937500
vt 0.015625 0.000000
vt 0.000000 0.437500
vt 1.000000 0.687500
vt 0.968750 0.625000
vt 1.000000 0.625000
vt 1.000000 0.187500
vt 0.968750 0.125000
vt 1.000000 0.125000
vt 1.000000 0.562500
vt 0.968750 0.562500
vt 0.968750 0.062500
vt 1.000000 0.062500
vt 1.000000 0.500000
vt 0.968750 0.500000
vt 1.000000 0.937500
vt 0.984375 1.000000
vt 0.968750 0.937500
vt 0.984375 0.000000
vt 0.968750 0.437500
vt 1.000000 0.437500
vt 0.968750 0.875000
vt 1.000000 0.875000
vt 0.968750 0.375000
vt 1.000000 0.375000
vt 1.000000 0.812500
vt 0.968750 0.812500
vt 1.000000 0.312500
vt 0.968750 0.312500
vt 0.968750 0.750000
vt 1.000000 0.750000
vt 0.968750 0.250000
vt 1.000000 0.250000
vt 0.968750 0.687500
vt 0.968750 0.187500
vt 0.937500 0.375000
vt 0.937500 0.875000
vt 0.937500 0.812500
vt 0.937500 0.312500
vt 0.937500 0.750000
vt 0.937500 0.250000
vt 0.937500 0.687500
vt 0.937500 0.187500
vt 0.937500 0.625000
vt 0.937500 0.125000
vt 0.937500 0.562500
vt 0.937500 0.062500
vt 0.937500 0.500000
vt 0.953125 1.000000
vt 0.937500 0.937500
vt 0.953125 0.000000
vt 0.937500 0.437500
vt 0.906250 0.187500
vt 0.906250 0.125000
vt 0.906250 0.625000
vt 0.906250 0.562500
vt 0.906250 0.062500
vt 0.906250 0.500000
vt 0.921875 1.000000
vt 0.906250 0.937500
vt 0.921875 0.000000
vt 0.906250 0.437500
vt 0.906250 0.875000
vt 0.906250 0.375000
vt 0.906250 0.812500
vt 0.906250 0.312500
vt 0.906250 0.750000
vt 0.906250 0.250000
vt 0.906250 0.687500
vt 0.875000 0.875000
vt 0.875000 0.812500
vt 0.875000 0.375000
vt 0.875000 0.312500
vt 0.875000 0.750000
vt 0.875000 0.250000
vt 0.875000 0.687500
vt 0.875000 0.187500
vt 0.875000 0.625000
vt 0.875000 0.125000
vt 0.875000 0.562500
vt 0.875000 0.062500
vt 0.875000 0.500000
vt 0.890625 1.000000
vt 0.875000 0.937500
vt 0.890625 0.000000
vt 0.875000 0.437500
vt 0.843750 0.625000
vt 0.843750 0.562500
vt 0.843750 0.062500
vt 0.843750 0.500000
vt 0.859375 1.000000
vt 0.843750 0.937500
vt 0.859375 0.000000
vt 0.843750 0.437500
vt 0.843750 0.875000
vt 0.843750 0.375000
vt 0.843750 0.812500
vt 0.843750 0.312500
vt 0.843750 0.750000
vt 0.843750 0.250000
vt 0.843750 0.687500
vt 0.843750 0.187500
vt 0.843750 0.125000
vt 0.812500 0.375000
vt 0.812500 0.312500
vt 0.812500 0.750000
vt 0.812500 0.250000
vt 0.812500 0.687500
vt 0.812500 0.187500
vt 0.812500 0.625000
vt 0.812500 0.125000
vt 0.812500 0.562500
vt 0.812500 0.062500
vt 0.812500 0.500000
vt 0.828125 1.000000
vt 0.812500 0.937500
vt 0.828125 0.000000
vt 0.812500 0.437500
vt 0.812500 0.875000
vt 0.812500 0.812500
vt 0.781250 0.125000
vt 0.781250 0.062500
vt 0.781250 0.562500
vt 0.781250 0.500000
vt 0.796875 1.000000
vt 0.781250 0.937500
vt 0.796875 0.000000
vt 0.781250 0.437500
vt 0.781250 0.875000
vt 0.781250 0.375000
vt 0.781250 0.812500
vt 0.781250 0.312500
vt 0.781250 0.750000
vt 0.781250 0.250000
vt 0.781250 0.687500
vt 0.781250 0.187500
vt 0.781250 0.625000
vt 0.765625 1.000000
vt 0.765625 0.000000
s 0
f 476/1/1 11/2/1 12/3/1
f 7/4/2 20/5/2 479/6/2
f 3/7/3 12/3/3 13/8/3
f 479/6/4 21/9/4 480/10/4
f 477/11/5 13/8/5 14/12/5
f 480/10/6 22/13/6 481/14/6
f 4/15/7 14/12/7 15/16/7
f 481/14/8 23/17/8 482/18/8
f 4/15/9 16/19/9 5/20/9
f 474/21/10 1/22/10 9/23/10
f 8/24/11 482/18/11 23/17/11
f 5/20/12 17/25/12 6/26/12
f 475/27/13 9/23/13 10/28/13
f 6/26/14 18/29/14 478/30/14
f 2/31/15 10/28/15 11/2/15
f 478/30/16 19/32/16 7/4/16
f 17/25/17 33/33/17 18/29/17
f 10/28/18 26/34/18 11/2/18
f 18/29/19 34/35/19 19/32/19
f 11/2/20 27/36/20 12/3/20
f 19/32/21 35/37/21 20/5/21
f 12/3/22 28/38/22 13/8/22
f 21/9/23 35/37/23 36/39/23
f 13/8/24 29/40/24 14/12/24
f 22/13/25 36/39/25 37/41/25
f 15/16/26 29/40/26 30/42/26
f 22/13/27 38/43/27 23/17/27
f 15/16/28 31/44/28 16/19/28
f 9/23/29 1/45/29 24/46/29
f 8/47/30 23/17/30 38/43/30
f 16/19/31 32/48/31 17/25/31
f 9/23/32 25/49/32 10/28/32
f 36/39/33 52/50/33 37/41/33
f 29/40/34 45/51/34 30/42/34
f 37/41/35 53/52/35 38/43/35
f 30/42/36 46/53/36 31/44/36
f 24/46/37 1/54/37 39/55/37
f 8/56/38 38/43/38 53/52/38
f 32/48/39 46/53/39 47/57/39
f 24/46/40 40/58/40 25/49/40
f 32/48/41 48/59/41 33/33/41
f 25/49/42 41/60/42 26/34/42
f 34/35/43 48/59/43 49/61/43
f 26/34/44 42/62/44 27/36/44
f 35/37/45 49/61/45 50/63/45
f 27/36/46 43/64/46 28/38/46
f 36/39/47 50/63/47 51/65/47
f 28/38/48 44/66/48 29/40/48
f 49/61/49 63/67/49 64/68/49
f 41/60/50 57/69/50 42/62/50
f 49/61/51 65/70/51 50/63/51
f 42/62/52 58/71/52 43/64/52
f 50/63/53 66/72/53 51/65/53
f 43/64/54 59/73/54 44/66/54
f 51/65/55 67/74/55 52/50/55
f 45/51/56 59/73/56 60/75/56
f 52/50/57 68/76/57 53/52/57
f 46/53/58 60/75/58 61/77/58
f 39/55/59 1/78/59 54/79/59
f 8/80/60 53/52/60 68/76/60
f 46/53/61 62/81/61 47/57/61
f 39/55/62 55/82/62 40/58/62
f 47/57/63 63/67/63 48/59/63
f 40/58/64 56/83/64 41/60/64
f 67/74/65 83/84/65 68/76/65
f 61/77/66 75/85/66 76/86/66
f 54/79/67 1/87/67 69/88/67
f 8/89/68 68/76/68 83/84/68
f 61/77/69 77/90/69 62/81/69
f 54/79/70 70/91/70 55/82/70
f 62/81/71 78/92/71 63/67/71
f 55/82/72 71/93/72 56/83/72
f 64/68/73 78/92/73 79/94/73
f 56/83/74 72/95/74 57/69/74
f 64/68/75 80/96/75 65/70/75
f 58/71/76 72/95/76 73/97/76
f 65/70/77 81/98/77 66/72/77
f 58/71/78 74/99/78 59/73/78
f 67/74/79 81/98/79 82/100/79
f 60/75/80 74/99/80 75/85/80
f 71/93/81 87/101/81 72/95/81
f 79/94/82 95/102/82 80/96/82
f 73/97/83 87/101/83 88/103/83
f 80/96/84 96/104/84 81/98/84
f 73/97/85 89/105/85 74/99/85
f 81/98/86 97/106/86 82/100/86
f 75/85/87 89/105/87 90/107/87
f 83/84/88 97/106/88 98/108/88
f 76/86/89 90/107/89 91/109/89
f 69/88/90 1/110/90 84/111/90
f 8/112/91 83/84/91 98/108/91
f 76/86/92 92/113/92 77/90/92
f 69/88/93 85/114/93 70/91/93
f 77/90/94 93/115/94 78/92/94
f 70/91/95 86/116/95 71/93/95
f 79/94/96 93/115/96 94/117/96
f 91/109/97 105/118/97 106/119/97
f 84/111/98 1/120/98 99/121/98
f 8/122/99 98/108/99 113/123/99
f 91/109/100 107/124/100 92/113/100
f 85/114/101 99/121/101 100/125/101
f 92/113/102 108/126/102 93/115/102
f 85/114/103 101/127/103 86/116/103
f 94/117/104 108/126/104 109/128/104
f 86/116/105 102/129/105 87/101/105
f 94/117/106 110/130/106 95/102/106
f 88/103/107 102/129/107 103/131/107
f 96/104/108 110/130/108 111/132/108
f 88/103/109 104/133/109 89/105/109
f 97/106/110 111/132/110 112/134/110
f 90/107/111 104/133/111 105/118/111
f 97/106/112 113/123/112 98/108/112
f 109/128/113 125/135/113 110/130/113
f 103/131/114 117/136/114 118/137/114
f 111/132/115 125/135/115 126/138/115
f 103/131/116 119/139/116 104/133/116
f 111/132/117 127/140/117 112/134/117
f 105/118/118 119/139/118 120/141/118
f 112/134/119 128/142/119 113/123/119
f 106/119/120 120/141/120 121/143/120
f 99/121/121 1/144/121 114/145/121
f 8/146/122 113/123/122 128/142/122
f 106/119/123 122/147/123 107/124/123
f 100/125/124 114/145/124 115/148/124
f 107/124/125 123/149/125 108/126/125
f 100/125/126 116/150/126 101/127/126
f 109/128/127 123/149/127 124/151/127
f 101/127/128 117/136/128 102/129/128
f 114/145/129 1/152/129 129/153/129
f 8/154/130 128/142/130 143/155/130
f 121/143/131 137/156/131 122/147/131
f 114/145/132 130/157/132 115/148/132
f 122/147/133 138/158/133 123/149/133
f 115/148/134 131/159/134 116/150/134
f 124/151/135 138/158/135 139/160/135
f 116/150/136 132/161/136 117/136/136
f 124/151/137 140/162/137 125/135/137
f 118/137/138 132/161/138 133/163/138
f 126/138/139 140/162/139 141/164/139
f 118/137/140 134/165/140 119/139/140
f 126/138/141 142/166/141 127/140/141
f 120/141/142 134/165/142 135/167/142
f 127/140/143 143/155/143 128/142/143
f 121/143/144 135/167/144 136/168/144
f 133/163/145 147/169/145 148/170/145
f 141/164/146 155/171/146 156/172/146
f 133/163/147 149/173/147 134/165/147
f 141/164/148 157/174/148 142/166/148
f 135/167/149 149/173/149 150/175/149
f 143/155/150 157/174/150 158/176/150
f 136/168/151 150/175/151 151/177/151
f 129/153/152 1/178/152 144/179/152
f 8/180/153 143/155/153 158/176/153
f 136/168/154 152/181/154 137/156/154
f 129/153/155 145/182/155 130/157/155
f 137/156/156 153/183/156 138/158/156
f 131/159/157 145/182/157 146/184/157
f 139/160/158 153/183/158 154/185/158
f 131/159/159 147/169/159 132/161/159
f 139/160/160 155/171/160 140/162/160
f 151/177/161 167/186/161 152/181/161
f 144/179/162 160/187/162 145/182/162
f 152/181/163 168/188/163 153/183/163
f 146/184/164 160/187/164 161/189/164
f 154/185/165 168/188/165 169/190/165
f 146/184/166 162/191/166 147/169/166
f 154/185/167 170/192/167 155/171/167
f 148/170/168 162/191/168 163/193/168
f 156/172/169 170/192/169 171/194/169
f 148/170/170 164/195/170 149/173/170
f 156/172/171 172/196/171 157/174/171
f 150/175/172 164/195/172 165/197/172
f 157/174/173 173/198/173 158/176/173
f 151/177/174 165/197/174 166/199/174
f 144/179/175 1/200/175 159/201/175
f 8/202/176 158/176/176 173/198/176
f 170/192/177 186/203/177 171/194/177
f 163/193/178 179/204/178 164/195/178
f 172/196/179 186/203/179 187/205/179
f 165/197/180 179/204/180 180/206/180
f 173/198/181 187/205/181 188/207/181
f 166/199/182 180/206/182 181/208/182
f 159/201/183 1/209/183 174/210/183
f 8/211/184 173/198/184 188/207/184
f 166/199/185 182/212/185 167/186/185
f 159/201/186 175/213/186 160/187/186
f 167/186/187 183/214/187 168/188/187
f 160/187/188 176/215/188 161/189/188
f 169/190/189 183/214/189 184/216/189
f 161/189/190 177/217/190 162/191/190
f 169/190/191 185/218/191 170/192/191
f 163/193/192 177/217/192 178/219/192
f 182/212/193 198/220/193 183/214/193
f 176/215/194 190/221/194 191/222/194
f 184/216/195 198/220/195 199/223/195
f 176/215/196 192/224/196 177/217/196
f 184/216/197 200/225/197 185/218/197
f 178/219/198 192/224/198 193/226/198
f 186/203/199 200/225/199 201/227/199
f 178/219/200 194/228/200 179/204/200
f 186/203/201 202/229/201 187/205/201
f 180/206/202 194/228/202 195/230/202
f 187/205/203 203/231/203 188/207/203
f 181/208/204 195/230/204 196/232/204
f 174/210/205 1/233/205 189/234/205
f 8/235/206 188/207/206 203/231/206
f 181/208/207 197/236/207 182/212/207
f 175/213/208 189/234/208 190/221/208
f 201/227/209 217/237/209 202/229/209
f 195/230/210 209/238/210 210/239/210
f 202/229/211 218/240/211 203/231/211
f 196/232/212 210/239/212 211/241/212
f 189/234/213 1/242/213 204/243/213
f 8/244/214 203/231/214 218/240/214
f 196/232/215 212/245/215 197/236/215
f 189/234/216 205/246/216 190/221/216
f 197/236/217 213/247/217 198/220/217
f 190/221/218 206/248/218 191/222/218
f 199/223/219 213/247/219 214/249/219
f 191/222/220 207/250/220 192/224/220
f 199/223/221 215/251/221 200/225/221
f 193/226/222 207/250/222 208/252/222
f 201/227/223 215/251/223 216/253/223
f 193/226/224 209/238/224 194/228/224
f 205/246/225 221/254/225 206/248/225
f 214/249/226 228/255/226 229/256/226
f 206/248/227 222/257/227 207/250/227
f 214/249/228 230/258/228 215/251/228
f 208/252/229 222/257/229 223/259/229
f 216/253/230 230/258/230 231/260/230
f 208/252/231 224/261/231 209/238/231
f 216/253/232 232/262/232 217/237/232
f 210/239/233 224/261/233 225/263/233
f 217/237/234 233/264/234 218/240/234
f 211/241/235 225/263/235 226/265/235
f 204/243/236 1/266/236 219/267/236
f 8/268/237 218/240/237 233/264/237
f 211/241/238 227/269/238 212/245/238
f 204/243/239 220/270/239 205/246/239
f 212/245/240 228/255/240 213/247/240
f 225/263/241 239/271/241 240/272/241
f 233/264/242 247/273/242 248/274/242
f 226/265/243 240/272/243 241/275/243
f 219/267/244 1/276/244 234/277/244
f 8/278/245 233/264/245 248/274/245
f 226/265/246 242/279/246 227/269/246
f 219/267/247 235/280/247 220/270/247
f 227/269/248 243/281/248 228/255/248
f 221/254/249 235/280/249 236/282/249
f 229/256/250 243/281/250 244/283/250
f 221/254/251 237/284/251 222/257/251
f 229/256/252 245/285/252 230/258/252
f 223/259/253 237/284/253 238/286/253
f 231/260/254 245/285/254 246/287/254
f 223/259/255 239/271/255 224/261/255
f 231/260/256 247/273/256 232/262/256
f 244/283/257 258/288/257 259/289/257
f 236/282/258 252/290/258 237/284/258
f 244/283/259 260/291/259 245/285/259
f 238/286/260 252/290/260 253/292/260
f 246/287/261 260/291/261 261/293/261
f 238/286/262 254/294/262 239/271/262
f 246/287/263 262/295/263 247/273/263
f 240/272/264 254/294/264 255/296/264
f 247/273/265 263/297/265 248/274/265
f 241/275/266 255/296/266 256/298/266
f 234/277/267 1/299/267 249/300/267
f 8/301/268 248/274/268 263/297/268
f 241/275/269 257/302/269 242/279/269
f 234/277/270 250/303/270 235/280/270
f 242/279/271 258/288/271 243/281/271
f 235/280/272 251/304/272 236/282/272
f 262/295/273 278/305/273 263/297/273
f 256/298/274 270/306/274 271/307/274
f 249/300/275 1/308/275 264/309/275
f 8/310/276 263/297/276 278/305/276
f 256/298/277 272/311/277 257/302/277
f 250/303/278 264/309/278 265/312/278
f 257/302/279 273/313/279 258/288/279
f 250/303/280 266/314/280 251/304/280
f 259/289/281 273/313/281 274/315/281
f 251/304/282 267/316/282 252/290/282
f 259/289/283 275/317/283 260/291/283
f 253/292/284 267/316/284 268/318/284
f 261/293/285 275/317/285 276/319/285
f 253/292/286 269/320/286 254/294/286
f 261/293/287 277/321/287 262/295/287
f 255/296/288 269/320/288 270/306/288
f 266/314/289 282/322/289 267/316/289
f 274/315/290 290/323/290 275/317/290
f 268/318/291 282/322/291 283/324/291
f 276/319/292 290/323/292 291/325/292
f 268/318/293 284/326/293 269/320/293
f 276/319/294 292/327/294 277/321/294
f 270/306/295 284/326/295 285/328/295
f 278/305/296 292/327/296 293/329/296
f 271/307/297 285/328/297 286/330/297
f 264/309/298 1/331/298 279/332/298
f 8/333/299 278/305/299 293/329/299
f 271/307/300 287/334/300 272/311/300
f 265/312/301 279/332/301 280/335/301
f 272/311/302 288/336/302 273/313/302
f 265/312/303 281/337/303 266/314/303
f 274/315/304 288/336/304 289/338/304
f 286/330/305 300/339/305 301/340/305
f 279/332/306 1/341/306 294/342/306
f 8/343/307 293/329/307 308/344/307
f 286/330/308 302/345/308 287/334/308
f 279/332/309 295/346/309 280/335/309
f 287/334/310 303/347/310 288/336/310
f 280/335/311 296/348/311 281/337/311
f 289/338/312 303/347/312 304/349/312
f 281/337/313 297/350/313 282/322/313
f 289/338/314 305/351/314 290/323/314
f 283/324/315 297/350/315 298/352/315
f 291/325/316 305/351/316 306/353/316
f 283/324/317 299/354/317 284/326/317
f 291/325/318 307/355/318 292/327/318
f 285/328/319 299/354/319 300/339/319
f 293/329/320 307/355/320 308/344/320
f 304/349/321 320/356/321 305/351/321
f 298/352/322 312/357/322 313/358/322
f 306/353/323 320/356/323 321/359/323
f 298/352/324 314/360/324 299/354/324
f 306/353/325 322/361/325 307/355/325
f 300/339/326 314/360/326 315/362/326
f 307/355/327 323/363/327 308/344/327
f 301/340/328 315/362/328 316/364/328
f 294/342/329 1/365/329 309/366/329
f 8/367/330 308/344/330 323/363/330
f 301/340/331 317/368/331 302/345/331
f 294/342/332 310/369/332 295/346/332
f 302/345/333 318/370/333 303/347/333
f 295/346/334 311/371/334 296/348/334
f 304/349/335 318/370/335 319/372/335
f 296/348/336 312/357/336 297/350/336
f 8/373/337 323/363/337 338/374/337
f 316/364/338 332/375/338 317/368/338
f 309/366/339 325/376/339 310/369/339
f 317/368/340 333/377/340 318/370/340
f 310/369/341 326/378/341 311/371/341
f 319/372/342 333/377/342 334/379/342
f 311/371/343 327/380/343 312/357/343
f 319/372/344 335/381/344 320/356/344
f 312/357/345 328/382/345 313/358/345
f 321/359/346 335/381/346 336/383/346
f 313/358/347 329/384/347 314/360/347
f 321/359/348 337/385/348 322/361/348
f 315/362/349 329/384/349 330/386/349
f 322/361/350 338/374/350 323/363/350
f 316/364/351 330/386/351 331/387/351
f 309/366/352 1/388/352 324/389/352
f 336/383/353 350/390/353 351/391/353
f 328/382/354 344/392/354 329/384/354
f 336/383/355 352/393/355 337/385/355
f 330/386/356 344/392/356 345/394/356
f 337/385/357 353/395/357 338/374/357
f 331/387/358 345/394/358 346/396/358
f 324/389/359 1/397/359 339/398/359
f 8/399/360 338/374/360 353/395/360
f 331/387/361 347/400/361 332/375/361
f 324/389/362 340/401/362 325/376/362
f 332/375/363 348/402/363 333/377/363
f 325/376/364 341/403/364 326/378/364
f 334/379/365 348/402/365 349/404/365
f 326/378/366 342/405/366 327/380/366
f 334/379/367 350/390/367 335/381/367
f 328/382/368 342/405/368 343/406/368
f 339/398/369 355/407/369 340/401/369
f 347/400/370 363/408/370 348/402/370
f 341/403/371 355/407/371 356/409/371
f 349/404/372 363/408/372 364/410/372
f 341/403/373 357/411/373 342/405/373
f 349/404/374 365/412/374 350/390/374
f 343/406/375 357/411/375 358/413/375
f 351/391/376 365/412/376 366/414/376
f 343/406/377 359/415/377 344/392/377
f 351/391/378 367/416/378 352/393/378
f 345/394/379 359/415/379 360/417/379
f 352/393/380 368/418/380 353/395/380
f 346/396/381 360/417/381 361/419/381
f 339/398/382 1/420/382 354/421/382
f 8/422/383 353/395/383 368/418/383
f 346/396/384 362/423/384 347/400/384
f 358/424/385 374/425/385 359/426/385
f 366/427/386 382/428/386 367/429/386
f 360/430/387 374/425/387 375/431/387
f 367/429/388 383/432/388 368/433/388
f 361/434/389 375/431/389 376/435/389
f 354/436/390 1/437/390 369/438/390
f 8/439/391 368/433/391 383/432/391
f 361/434/392 377/440/392 362/441/392
f 354/436/393 370/442/393 355/443/393
f 362/441/394 378/444/394 363/445/394
f 356/446/395 370/442/395 371/447/395
f 364/448/396 378/444/396 379/449/396
f 356/446/397 372/450/397 357/451/397
f 364/448/398 380/452/398 365/453/398
f 358/424/399 372/450/399 373/454/399
f 366/427/400 380/452/400 381/455/400
f 377/440/401 393/456/401 378/444/401
f 371/447/402 385/457/402 386/458/402
f 379/449/403 393/456/403 394/459/403
f 371/447/404 387/460/404 372/450/404
f 379/449/405 395/461/405 380/452/405
f 373/454/406 387/460/406 388/462/406
f 381/455/407 395/461/407 396/463/407
f 373/454/408 389/464/408 374/425/408
f 381/455/409 397/465/409 382/428/409
f 375/431/410 389/464/410 390/466/410
f 382/428/411 398/467/411 383/432/411
f 376/435/412 390/466/412 391/468/412
f 369/438/413 1/469/413 384/470/413
f 8/471/414 383/432/414 398/467/414
f 376/435/415 392/472/415 377/440/415
f 369/438/416 385/457/416 370/442/416
f 397/465/417 411/473/417 412/474/417
f 390/466/418 404/475/418 405/476/418
f 397/465/419 413/477/419 398/467/419
f 391/468/420 405/476/420 406/478/420
f 384/470/421 1/479/421 399/480/421
f 8/481/422 398/467/422 413/477/422
f 391/468/423 407/482/423 392/472/423
f 385/457/424 399/480/424 400/483/424
f 392/472/425 408/484/425 393/456/425
f 385/457/426 401/485/426 386/458/426
f 394/459/427 408/484/427 409/486/427
f 386/458/428 402/487/428 387/460/428
f 394/459/429 410/488/429 395/461/429
f 388/462/430 402/487/430 403/489/430
f 396/463/431 410/488/431 411/473/431
f 388/462/432 404/475/432 389/464/432
f 401/485/433 415/490/433 416/491/433
f 409/486/434 423/492/434 424/493/434
f 401/485/435 417/494/435 402/487/435
f 409/486/436 425/495/436 410/488/436
f 403/489/437 417/494/437 418/496/437
f 411/473/438 425/495/438 426/497/438
f 403/489/439 419/498/439 404/475/439
f 411/473/440 427/499/440 412/474/440
f 405/476/441 419/498/441 420/500/441
f 412/474/442 428/501/442 413/477/442
f 406/478/443 420/500/443 421/502/443
f 399/480/444 1/503/444 414/504/444
f 8/505/445 413/477/445 428/501/445
f 406/478/446 422/506/446 407/482/446
f 399/480/447 415/490/447 400/483/447
f 407/482/448 423/492/448 408/484/448
f 420/500/449 434/507/449 435/508/449
f 427/499/450 443/509/450 428/501/450
f 421/502/451 435/508/451 436/510/451
f 414/504/452 1/511/452 429/512/452
f 8/513/453 428/501/453 443/509/453
f 421/502/454 437/514/454 422/506/454
f 414/504/455 430/515/455 415/490/455
f 422/506/456 438/516/456 423/492/456
f 416/491/457 430/515/457 431/517/457
f 424/493/458 438/516/458 439/518/458
f 416/491/459 432/519/459 417/494/459
f 424/493/460 440/520/460 425/495/460
f 418/496/461 432/519/461 433/521/461
f 426/497/462 440/520/462 441/522/462
f 418/496/463 434/507/463 419/498/463
f 426/497/464 442/523/464 427/499/464
f 439/518/465 453/524/465 454/525/465
f 431/517/466 447/526/466 432/519/466
f 439/518/467 455/527/467 440/520/467
f 433/521/468 447/526/468 448/528/468
f 441/522/469 455/527/469 456/529/469
f 433/521/470 449/530/470 434/507/470
f 441/522/471 457/531/471 442/523/471
f 435/508/472 449/530/472 450/532/472
f 442/523/473 458/533/473 443/509/473
f 436/510/474 450/532/474 451/534/474
f 429/512/475 1/535/475 444/536/475
f 8/537/476 443/509/476 458/533/476
f 436/510/477 452/538/477 437/514/477
f 430/515/478 444/536/478 445/539/478
f 437/514/479 453/524/479 438/516/479
f 430/515/480 446/540/480 431/517/480
f 458/533/481 472/541/481 473/542/481
f 451/534/482 465/543/482 466/544/482
f 444/536/483 1/545/483 459/546/483
f 8/547/484 458/533/484 473/542/484
f 451/534/485 467/548/485 452/538/485
f 444/536/486 460/549/486 445/539/486
f 452/538/487 468/550/487 453/524/487
f 446/540/488 460/549/488 461/551/488
f 454/525/489 468/550/489 469/552/489
f 446/540/490 462/553/490 447/526/490
f 454/525/491 470/554/491 455/527/491
f 448/528/492 462/553/492 463/555/492
f 456/529/493 470/554/493 471/556/493
f 448/528/494 464/557/494 449/530/494
f 456/529/495 472/541/495 457/531/495
f 450/532/496 464/557/496 465/543/496
f 469/552/497 479/6/497 470/554/497
f 463/555/498 476/1/498 3/7/498
f 471/556/499 479/6/499 480/10/499
f 464/557/500 3/7/500 477/11/500
f 471/556/501 481/14/501 472/541/501
f 465/543/502 477/11/502 4/15/502
f 472/541/503 482/18/503 473/542/503
f 466/544/504 4/15/504 5/20/504
f 459/546/505 1/558/505 474/21/505
f 8/559/506 473/542/506 482/18/506
f 466/544/507 6/26/507 467/548/507
f 460/549/508 474/21/508 475/27/508
f 467/548/509 478/30/509 468/550/509
f 461/551/510 475/27/510 2/31/510
f 468/550/511 7/4/511 469/552/511
f 462/553/512 2/31/512 476/1/512
f 476/1/1 2/31/1 11/2/1
f 7/4/2 19/32/2 20/5/2
f 3/7/3 476/1/3 12/3/3
f 479/6/4 20/5/4 21/9/4
f 477/11/5 3/7/5 13/8/5
f 480/10/6 21/9/6 22/13/6
f 4/15/7 477/11/7 14/12/7
f 481/14/8 22/13/8 23/17/8
f 4/15/513 15/16/513 16/19/513
f 5/20/514 16/19/514 17/25/514
f 475/27/13 474/21/13 9/23/13
f 6/26/14 17/25/14 18/29/14
f 2/31/15 475/27/15 10/28/15
f 478/30/16 18/29/16 19/32/16
f 17/25/17 32/48/17 33/33/17
f 10/28/18 25/49/18 26/34/18
f 18/29/19 33/33/19 34/35/19
f 11/2/20 26/34/20 27/36/20
f 19/32/21 34/35/21 35/37/21
f 12/3/22 27/36/22 28/38/22
f 21/9/23 20/5/23 35/37/23
f 13/8/24 28/38/24 29/40/24
f 22/13/25 21/9/25 36/39/25
f 15/16/26 14/12/26 29/40/26
f 22/13/27 37/41/27 38/43/27
f 15/16/28 30/42/28 31/44/28
f 16/19/31 31/44/31 32/48/31
f 9/23/32 24/46/32 25/49/32
f 36/39/515 51/65/515 52/50/515
f 29/40/34 44/66/34 45/51/34
f 37/41/35 52/50/35 53/52/35
f 30/42/36 45/51/36 46/53/36
f 32/48/39 31/44/39 46/53/39
f 24/46/40 39/55/40 40/58/40
f 32/48/41 47/57/41 48/59/41
f 25/49/516 40/58/516 41/60/516
f 34/35/43 33/33/43 48/59/43
f 26/34/44 41/60/44 42/62/44
f 35/37/45 34/35/45 49/61/45
f 27/36/46 42/62/46 43/64/46
f 36/39/47 35/37/47 50/63/47
f 28/38/48 43/64/48 44/66/48
f 49/61/49 48/59/49 63/67/49
f 41/60/50 56/83/50 57/69/50
f 49/61/51 64/68/51 65/70/51
f 42/62/52 57/69/52 58/71/52
f 50/63/53 65/70/53 66/72/53
f 43/64/54 58/71/54 59/73/54
f 51/65/55 66/72/55 67/74/55
f 45/51/56 44/66/56 59/73/56
f 52/50/57 67/74/57 68/76/57
f 46/53/58 45/51/58 60/75/58
f 46/53/61 61/77/61 62/81/61
f 39/55/62 54/79/62 55/82/62
f 47/57/63 62/81/63 63/67/63
f 40/58/64 55/82/64 56/83/64
f 67/74/517 82/100/517 83/84/517
f 61/77/66 60/75/66 75/85/66
f 61/77/69 76/86/69 77/90/69
f 54/79/70 69/88/70 70/91/70
f 62/81/71 77/90/71 78/92/71
f 55/82/72 70/91/72 71/93/72
f 64/68/73 63/67/73 78/92/73
f 56/83/74 71/93/74 72/95/74
f 64/68/75 79/94/75 80/96/75
f 58/71/76 57/69/76 72/95/76
f 65/70/77 80/96/77 81/98/77
f 58/71/78 73/97/78 74/99/78
f 67/74/79 66/72/79 81/98/79
f 60/75/80 59/73/80 74/99/80
f 71/93/81 86/116/81 87/101/81
f 79/94/82 94/117/82 95/102/82
f 73/97/83 72/95/83 87/101/83
f 80/96/84 95/102/84 96/104/84
f 73/97/85 88/103/85 89/105/85
f 81/98/86 96/104/86 97/106/86
f 75/85/87 74/99/87 89/105/87
f 83/84/88 82/100/88 97/106/88
f 76/86/89 75/85/89 90/107/89
f 76/86/92 91/109/92 92/113/92
f 69/88/93 84/111/93 85/114/93
f 77/90/94 92/113/94 93/115/94
f 70/91/95 85/114/95 86/116/95
f 79/94/96 78/92/96 93/115/96
f 91/109/97 90/107/97 105/118/97
f 91/109/100 106/119/100 107/124/100
f 85/114/101 84/111/101 99/121/101
f 92/113/102 107/124/102 108/126/102
f 85/114/103 100/125/103 101/127/103
f 94/117/104 93/115/104 108/126/104
f 86/116/105 101/127/105 102/129/105
f 94/117/106 109/128/106 110/130/106
f 88/103/107 87/101/107 102/129/107
f 96/104/108 95/102/108 110/130/108
f 88/103/109 103/131/109 104/133/109
f 97/106/110 96/104/110 111/132/110
f 90/107/111 89/105/111 104/133/111
f 97/106/112 112/134/112 113/123/112
f 109/128/113 124/151/113 125/135/113
f 103/131/114 102/129/114 117/136/114
f 111/132/115 110/130/115 125/135/115
f 103/131/116 118/137/116 119/139/116
f 111/132/117 126/138/117 127/140/117
f 105/118/118 104/133/118 119/139/118
f 112/134/119 127/140/119 128/142/119
f 106/119/120 105/118/120 120/141/120
f 106/119/123 121/143/123 122/147/123
f 100/125/124 99/121/124 114/145/124
f 107/124/125 122/147/125 123/149/125
f 100/125/126 115/148/126 116/150/126
f 109/128/127 108/126/127 123/149/127
f 101/127/128 116/150/128 117/136/128
f 121/143/131 136/168/131 137/156/131
f 114/145/132 129/153/132 130/157/132
f 122/147/133 137/156/133 138/158/133
f 115/148/134 130/157/134 131/159/134
f 124/151/135 123/149/135 138/158/135
f 116/150/136 131/159/136 132/161/136
f 124/151/137 139/160/137 140/162/137
f 118/137/138 117/136/138 132/161/138
f 126/138/139 125/135/139 140/162/139
f 118/137/140 133/163/140 134/165/140
f 126/138/141 141/164/141 142/166/141
f 120/141/142 119/139/142 134/165/142
f 127/140/143 142/166/143 143/155/143
f 121/143/144 120/141/144 135/167/144
f 133/163/145 132/161/145 147/169/145
f 141/164/146 140/162/146 155/171/146
f 133/163/147 148/170/147 149/173/147
f 141/164/148 156/172/148 157/174/148
f 135/167/149 134/165/149 149/173/149
f 143/155/150 142/166/150 157/174/150
f 136/168/151 135/167/151 150/175/151
f 136/168/154 151/177/154 152/181/154
f 129/153/155 144/179/155 145/182/155
f 137/156/156 152/181/156 153/183/156
f 131/159/157 130/157/157 145/182/157
f 139/160/158 138/158/158 153/183/158
f 131/159/159 146/184/159 147/169/159
f 139/160/160 154/185/160 155/171/160
f 151/177/161 166/199/161 167/186/161
f 144/179/162 159/201/162 160/187/162
f 152/181/163 167/186/163 168/188/163
f 146/184/518 145/182/518 160/187/518
f 154/185/165 153/183/165 168/188/165
f 146/184/166 161/189/166 162/191/166
f 154/185/167 169/190/167 170/192/167
f 148/170/168 147/169/168 162/191/168
f 156/172/169 155/171/169 170/192/169
f 148/170/170 163/193/170 164/195/170
f 156/172/519 171/194/519 172/196/519
f 150/175/172 149/173/172 164/195/172
f 157/174/173 172/196/173 173/198/173
f 151/177/174 150/175/174 165/197/174
f 170/192/177 185/218/177 186/203/177
f 163/193/178 178/219/178 179/204/178
f 172/196/179 171/194/179 186/203/179
f 165/197/180 164/195/180 179/204/180
f 173/198/181 172/196/181 187/205/181
f 166/199/182 165/197/182 180/206/182
f 166/199/185 181/208/185 182/212/185
f 159/201/186 174/210/186 175/213/186
f 167/186/187 182/212/187 183/214/187
f 160/187/188 175/213/188 176/215/188
f 169/190/189 168/188/189 183/214/189
f 161/189/190 176/215/190 177/217/190
f 169/190/191 184/216/191 185/218/191
f 163/193/192 162/191/192 177/217/192
f 182/212/193 197/236/193 198/220/193
f 176/215/194 175/213/194 190/221/194
f 184/216/195 183/214/195 198/220/195
f 176/215/196 191/222/196 192/224/196
f 184/216/197 199/223/197 200/225/197
f 178/219/198 177/217/198 192/224/198
f 186/203/199 185/218/199 200/225/199
f 178/219/200 193/226/200 194/228/200
f 186/203/201 201/227/201 202/229/201
f 180/206/202 179/204/202 194/228/202
f 187/205/203 202/229/203 203/231/203
f 181/208/204 180/206/204 195/230/204
f 181/208/207 196/232/207 197/236/207
f 175/213/208 174/210/208 189/234/208
f 201/227/520 216/253/520 217/237/520
f 195/230/210 194/228/210 209/238/210
f 202/229/211 217/237/211 218/240/211
f 196/232/212 195/230/212 210/239/212
f 196/232/215 211/241/215 212/245/215
f 189/234/216 204/243/216 205/246/216
f 197/236/217 212/245/217 213/247/217
f 190/221/218 205/246/218 206/248/218
f 199/223/219 198/220/219 213/247/219
f 191/222/220 206/248/220 207/250/220
f 199/223/221 214/249/221 215/251/221
f 193/226/222 192/224/222 207/250/222
f 201/227/223 200/225/223 215/251/223
f 193/226/224 208/252/224 209/238/224
f 205/246/225 220/270/225 221/254/225
f 214/249/226 213/247/226 228/255/226
f 206/248/227 221/254/227 222/257/227
f 214/249/228 229/256/228 230/258/228
f 208/252/229 207/250/229 222/257/229
f 216/253/230 215/251/230 230/258/230
f 208/252/231 223/259/231 224/261/231
f 216/253/232 231/260/232 232/262/232
f 210/239/233 209/238/233 224/261/233
f 217/237/234 232/262/234 233/264/234
f 211/241/235 210/239/235 225/263/235
f 211/241/238 226/265/238 227/269/238
f 204/243/239 219/267/239 220/270/239
f 212/245/240 227/269/240 228/255/240
f 225/263/241 224/261/241 239/271/241
f 233/264/242 232/262/242 247/273/242
f 226/265/243 225/263/243 240/272/243
f 226/265/246 241/275/246 242/279/246
f 219/267/247 234/277/247 235/280/247
f 227/269/248 242/279/248 243/281/248
f 221/254/249 220/270/249 235/280/249
f 229/256/250 228/255/250 243/281/250
f 221/254/251 236/282/251 237/284/251
f 229/256/252 244/283/252 245/285/252
f 223/259/253 222/257/253 237/284/253
f 231/260/254 230/258/254 245/285/254
f 223/259/255 238/286/255 239/271/255
f 231/260/256 246/287/256 247/273/256
f 244/283/257 243/281/257 258/288/257
f 236/282/258 251/304/258 252/290/258
f 244/283/259 259/289/259 260/291/259
f 238/286/260 237/284/260 252/290/260
f 246/287/261 245/285/261 260/291/261
f 238/286/262 253/292/262 254/294/262
f 246/287/263 261/293/263 262/295/263
f 240/272/264 239/271/264 254/294/264
f 247/273/265 262/295/265 263/297/265
f 241/275/521 240/272/521 255/296/521
f 241/275/522 256/298/522 257/302/522
f 234/277/270 249/300/270 250/303/270
f 242/279/271 257/302/271 258/288/271
f 235/280/272 250/303/272 251/304/272
f 262/295/273 277/321/273 278/305/273
f 256/298/274 255/296/274 270/306/274
f 256/298/277 271/307/277 272/311/277
f 250/303/278 249/300/278 264/309/278
f 257/302/279 272/311/279 273/313/279
f 250/303/280 265/312/280 266/314/280
f 259/289/281 258/288/281 273/313/281
f 251/304/282 266/314/282 267/316/282
f 259/289/283 274/315/283 275/317/283
f 253/292/284 252/290/284 267/316/284
f 261/293/285 260/291/285 275/317/285
f 253/292/286 268/318/286 269/320/286
f 261/293/287 276/319/287 277/321/287
f 255/296/288 254/294/288 269/320/288
f 266/314/289 281/337/289 282/322/289
f 274/315/290 289/338/290 290/323/290
f 268/318/291 267/316/291 282/322/291
f 276/319/292 275/317/292 290/323/292
f 268/318/293 283/324/293 284/326/293
f 276/319/523 291/325/523 292/327/523
f 270/306/295 269/320/295 284/326/295
f 278/305/296 277/321/296 292/327/296
f 271/307/297 270/306/297 285/328/297
f 271/307/300 286/330/300 287/334/300
f 265/312/301 264/309/301 279/332/301
f 272/311/302 287/334/302 288/336/302
f 265/312/524 280/335/524 281/337/524
f 274/315/304 273/313/304 288/336/304
f 286/330/305 285/328/305 300/339/305
f 286/330/308 301/340/308 302/345/308
f 279/332/309 294/342/309 295/346/309
f 287/334/310 302/345/310 303/347/310
f 280/335/311 295/346/311 296/348/311
f 289/338/312 288/336/312 303/347/312
f 281/337/313 296/348/313 297/350/313
f 289/338/314 304/349/314 305/351/314
f 283/324/315 282/322/315 297/350/315
f 291/325/316 290/323/316 305/351/316
f 283/324/317 298/352/317 299/354/317
f 291/325/318 306/353/318 307/355/318
f 285/328/319 284/326/319 299/354/319
f 293/329/320 292/327/320 307/355/320
f 304/349/321 319/372/321 320/356/321
f 298/352/322 297/350/322 312/357/322
f 306/353/323 305/351/323 320/356/323
f 298/352/324 313/358/324 314/360/324
f 306/353/325 321/359/325 322/361/325
f 300/339/326 299/354/326 314/360/326
f 307/355/525 322/361/525 323/363/525
f 301/340/328 300/339/328 315/362/328
f 301/340/331 316/364/331 317/368/331
f 294/342/332 309/366/332 310/369/332
f 302/345/333 317/368/333 318/370/333
f 295/346/334 310/369/334 311/371/334
f 304/349/335 303/347/335 318/370/335
f 296/348/336 311/371/336 312/357/336
f 316/364/338 331/387/338 332/375/338
f 309/366/339 324/389/339 325/376/339
f 317/368/340 332/375/340 333/377/340
f 310/369/341 325/376/341 326/378/341
f 319/372/342 318/370/342 333/377/342
f 311/371/343 326/378/343 327/380/343
f 319/372/344 334/379/344 335/381/344
f 312/357/345 327/380/345 328/382/345
f 321/359/346 320/356/346 335/381/346
f 313/358/347 328/382/347 329/384/347
f 321/359/526 336/383/526 337/385/526
f 315/362/349 314/360/349 329/384/349
f 322/361/350 337/385/350 338/374/350
f 316/364/351 315/362/351 330/386/351
f 336/383/353 335/381/353 350/390/353
f 328/382/354 343/406/354 344/392/354
f 336/383/355 351/391/355 352/393/355
f 330/386/356 329/384/356 344/392/356
f 337/385/357 352/393/357 353/395/357
f 331/387/358 330/386/358 345/394/358
f 331/387/361 346/396/361 347/400/361
f 324/389/362 339/398/362 340/401/362
f 332/375/363 347/400/363 348/402/363
f 325/376/364 340/401/364 341/403/364
f 334/379/365 333/377/365 348/402/365
f 326/378/366 341/403/366 342/405/366
f 334/379/367 349/404/367 350/390/367
f 328/382/368 327/380/368 342/405/368
f 339/398/369 354/421/369 355/407/369
f 347/400/370 362/423/370 363/408/370
f 341/403/371 340/401/371 355/407/371
f 349/404/372 348/402/372 363/408/372
f 341/403/373 356/409/373 357/411/373
f 349/404/374 364/410/374 365/412/374
f 343/406/375 342/405/375 357/411/375
f 351/391/376 350/390/376 365/412/376
f 343/406/377 358/413/377 359/415/377
f 351/391/378 366/414/378 367/416/378
f 345/394/379 344/392/379 359/415/379
f 352/393/380 367/416/380 368/418/380
f 346/396/527 345/394/527 360/417/527
f 346/396/528 361/419/528 362/423/528
f 358/424/385 373/454/385 374/425/385
f 366/427/386 381/455/386 382/428/386
f 360/430/387 359/426/387 374/425/387
f 367/429/388 382/428/388 383/432/388
f 361/434/529 360/430/529 375/431/529
f 361/434/530 376/435/530 377/440/530
f 354/436/393 369/438/393 370/442/393
f 362/441/394 377/440/394 378/444/394
f 356/446/395 355/443/395 370/442/395
f 364/448/396 363/445/396 378/444/396
f 356/446/397 371/447/397 372/450/397
f 364/448/398 379/449/398 380/452/398
f 358/424/399 357/451/399 372/450/399
f 366/427/400 365/453/400 380/452/400
f 377/440/401 392/472/401 393/456/401
f 371/447/402 370/442/402 385/457/402
f 379/449/403 378/444/403 393/456/403
f 371/447/404 386/458/404 387/460/404
f 379/449/405 394/459/405 395/461/405
f 373/454/406 372/450/406 387/460/406
f 381/455/407 380/452/407 395/461/407
f 373/454/408 388/462/408 389/464/408
f 381/455/409 396/463/409 397/465/409
f 375/431/410 374/425/410 389/464/410
f 382/428/411 397/465/411 398/467/411
f 376/435/412 375/431/412 390/466/412
f 376/435/415 391/468/415 392/472/415
f 369/438/416 384/470/416 385/457/416
f 397/465/417 396/463/417 411/473/417
f 390/466/418 389/464/418 404/475/418
f 397/465/419 412/474/419 413/477/419
f 391/468/420 390/466/420 405/476/420
f 391/468/423 406/478/423 407/482/423
f 385/457/424 384/470/424 399/480/424
f 392/472/425 407/482/425 408/484/425
f 385/457/426 400/483/426 401/485/426
f 394/459/427 393/456/427 408/484/427
f 386/458/428 401/485/428 402/487/428
f 394/459/429 409/486/429 410/488/429
f 388/462/430 387/460/430 402/487/430
f 396/463/431 395/461/431 410/488/431
f 388/462/432 403/489/432 404/475/432
f 401/485/433 400/483/433 415/490/433
f 409/486/434 408/484/434 423/492/434
f 401/485/435 416/491/435 417/494/435
f 409/486/436 424/493/436 425/495/436
f 403/489/437 402/487/437 417/494/437
f 411/473/438 410/488/438 425/495/438
f 403/489/439 418/496/439 419/498/439
f 411/473/440 426/497/440 427/499/440
f 405/476/441 404/475/441 419/498/441
f 412/474/442 427/499/442 428/501/442
f 406/478/443 405/476/443 420/500/443
f 406/478/446 421/502/446 422/506/446
f 399/480/447 414/504/447 415/490/447
f 407/482/448 422/506/448 423/492/448
f 420/500/449 419/498/449 434/507/449
f 427/499/450 442/523/450 443/509/450
f 421/502/451 420/500/451 435/508/451
f 421/502/454 436/510/454 437/514/454
f 414/504/455 429/512/455 430/515/455
f 422/506/456 437/514/456 438/516/456
f 416/491/457 415/490/457 430/515/457
f 424/493/458 423/492/458 438/516/458
f 416/491/459 431/517/459 432/519/459
f 424/493/460 439/518/460 440/520/460
f 418/496/461 417/494/461 432/519/461
f 426/497/462 425/495/462 440/520/462
f 418/496/463 433/521/463 434/507/463
f 426/497/464 441/522/464 442/523/464
f 439/518/465 438/516/465 453/524/465
f 431/517/466 446/540/466 447/526/466
f 439/518/467 454/525/467 455/527/467
f 433/521/468 432/519/468 447/526/468
f 441/522/469 440/520/469 455/527/469
f 433/521/470 448/528/470 449/530/470
f 441/522/471 456/529/471 457/531/471
f 435/508/472 434/507/472 449/530/472
f 442/523/473 457/531/473 458/533/473
f 436/510/474 435/508/474 450/532/474
f 436/510/477 451/534/477 452/538/477
f 430/515/478 429/512/478 444/536/478
f 437/514/479 452/538/479 453/524/479
f 430/515/480 445/539/480 446/540/480
f 458/533/481 457/531/481 472/541/481
f 451/534/482 450/532/482 465/543/482
f 451/534/485 466/544/485 467/548/485
f 444/536/486 459/546/486 460/549/486
f 452/538/487 467/548/487 468/550/487
f 446/540/488 445/539/488 460/549/488
f 454/525/489 453/524/489 468/550/489
f 446/540/490 461/551/490 462/553/490
f 454/525/491 469/552/491 470/554/491
f 448/528/492 447/526/492 462/553/492
f 456/529/493 455/527/493 470/554/493
f 448/528/494 463/555/494 464/557/494
f 456/529/495 471/556/495 472/541/495
f 450/532/496 449/530/496 464/557/496
f 469/552/497 7/4/497 479/6/497
f 463/555/498 462/553/498 476/1/498
f 471/556/499 470/554/499 479/6/499
f 464/557/500 463/555/500 3/7/500
f 471/556/501 480/10/501 481/14/501
f 465/543/502 464/557/502 477/11/502
f 472/541/503 481/14/503 482/18/503
f 466/544/504 465/543/504 4/15/504
f 466/544/507 5/20/507 6/26/507
f 460/549/508 459/546/508 474/21/508
f 467/548/509 6/26/509 478/30/509
f 461/551/510 460/549/510 475/27/510
f 468/550/511 478/30/511 7/4/511
f 462/553/512 461/551/512 2/31/512
